<svg width="12" height="13" viewBox="0 0 12 13" fill="none" xmlns="http://www.w3.org/2000/svg">
<path d="M11.7208 0.292836C11.542 0.114087 11.2996 0.0136719 11.0467 0.0136719C10.7939 0.0136719 10.5514 0.114087 10.3726 0.292836L6 4.66546L1.62737 0.292836C1.44857 0.114087 1.2061 0.0136719 0.953269 0.0136719C0.700442 0.0136719 0.457967 0.114087 0.279164 0.292836C0.100415 0.471638 0 0.714114 0 0.966941C0 1.21977 0.100415 1.46224 0.279164 1.64105L4.65179 6.01367L0.279164 10.3863C0.100415 10.5651 0 10.8076 0 11.0604C0 11.3132 0.100415 11.5557 0.279164 11.7345C0.457967 11.9133 0.700442 12.0137 0.953269 12.0137C1.2061 12.0137 1.44857 11.9133 1.62737 11.7345L6 7.36188L10.3726 11.7345C10.5514 11.9133 10.7939 12.0137 11.0467 12.0137C11.2996 12.0137 11.542 11.9133 11.7208 11.7345C11.8996 11.5557 12 11.3132 12 11.0604C12 10.8076 11.8996 10.5651 11.7208 10.3863L7.34821 6.01367L11.7208 1.64105C11.8996 1.46224 12 1.21977 12 0.966941C12 0.714114 11.8996 0.471638 11.7208 0.292836Z" fill="black"/>
</svg>
