<svg width="15" height="16" viewBox="0 0 15 16" fill="none" xmlns="http://www.w3.org/2000/svg">
<path d="M5 3.95996C4.65482 3.95996 4.375 4.23979 4.375 4.58496V5.20997H2.5C2.15483 5.20997 1.875 5.48978 1.875 5.83496C1.875 6.18014 2.15483 6.45996 2.5 6.45996H4.375V7.08497C4.375 7.43015 4.65482 7.70996 5 7.70996H5.625C5.97018 7.70996 6.25 7.43015 6.25 7.08497V6.45996H12.5C12.8452 6.45996 13.125 6.18014 13.125 5.83496C13.125 5.48978 12.8452 5.20997 12.5 5.20997H6.25V4.58496C6.25 4.23979 5.97018 3.95996 5.625 3.95996H5Z" fill="black"/>
<path d="M1.875 10.834C1.875 10.4888 2.15483 10.209 2.5 10.209H8.75V9.58398C8.75 9.2388 9.02982 8.95898 9.375 8.95898H10C10.3452 8.95898 10.625 9.2388 10.625 9.58398V10.209H12.5C12.8452 10.209 13.125 10.4888 13.125 10.834C13.125 11.1792 12.8452 11.459 12.5 11.459H10.625V12.0839C10.625 12.4291 10.3452 12.709 10 12.709H9.375C9.02982 12.709 8.75 12.4291 8.75 12.0839V11.459H2.5C2.15483 11.459 1.875 11.1792 1.875 10.834Z" fill="black"/>
</svg>
