<svg width="185" height="94" viewBox="0 0 185 94" fill="none" xmlns="http://www.w3.org/2000/svg">
<g clip-path="url(#clip0_7_882)">
<path d="M108.632 51.2473V35.7315H112.018C113.201 35.7315 114.078 36.0633 114.648 36.7269C115.217 37.3833 115.502 38.3175 115.502 39.5293V41.3903C115.502 43.8862 114.298 45.134 111.888 45.134H110.363V51.2473H108.632ZM110.363 43.5759H111.888C112.545 43.5759 113.025 43.4137 113.328 43.089C113.638 42.7573 113.793 42.2271 113.793 41.4985V39.4319C113.793 38.7106 113.652 38.1768 113.371 37.8306C113.089 37.4844 112.639 37.3111 112.018 37.3111H110.363V43.5759ZM116.411 51.2473L119.376 35.7315H121.886L124.851 51.2473H123.131L122.524 48.1204H118.608L118.002 51.2473H116.411ZM118.824 46.638H122.286L120.534 37.6899L118.824 46.638ZM126.117 47.5036V45.9996H127.729V47.5902C127.729 48.3042 127.88 48.8562 128.183 49.2457C128.486 49.6352 128.941 49.83 129.547 49.83C130.759 49.83 131.364 49.0401 131.364 47.4603V46.2377C131.364 45.4875 131.195 44.9177 130.856 44.5282C130.524 44.1313 130.03 43.9329 129.374 43.9329H128.638V42.3858H129.46C130.044 42.3858 130.506 42.1982 130.845 41.8231C131.191 41.448 131.364 40.9252 131.364 40.2543V39.5509C131.364 38.743 131.217 38.1408 130.921 37.744C130.632 37.3473 130.174 37.1489 129.547 37.1489C128.941 37.1489 128.486 37.3437 128.183 37.7332C127.88 38.1227 127.729 38.6745 127.729 39.3886V40.4383H126.138V39.4535C126.138 38.2345 126.423 37.2859 126.993 36.6079C127.57 35.9226 128.436 35.5801 129.59 35.5801C130.751 35.5801 131.624 35.9298 132.208 36.6295C132.8 37.3219 133.096 38.2742 133.096 39.486V39.8755C133.096 40.6834 132.933 41.3651 132.609 41.9205C132.291 42.4688 131.819 42.8583 131.191 43.089C131.826 43.3056 132.302 43.6914 132.62 44.2468C132.937 44.8022 133.096 45.4802 133.096 46.281V47.5036C133.096 48.7155 132.8 49.6675 132.208 50.3602C131.624 51.0526 130.751 51.3988 129.59 51.3988C128.436 51.3988 127.567 51.0526 126.982 50.3602C126.405 49.6675 126.117 48.7155 126.117 47.5036ZM134.773 51.2473V35.7315H138.246C139.429 35.7315 140.287 36.0164 140.821 36.5862C141.355 37.1489 141.622 38.0109 141.622 39.1723V39.8971C141.622 40.7483 141.481 41.4265 141.2 41.9313C140.926 42.4291 140.461 42.7788 139.804 42.9809C141.189 43.3704 141.881 44.4776 141.881 46.3026V47.6118C141.881 48.7948 141.589 49.6964 141.005 50.3169C140.421 50.9371 139.533 51.2473 138.343 51.2473H134.773ZM136.504 49.6785H138.343C138.978 49.6785 139.443 49.509 139.739 49.1699C140.035 48.8236 140.183 48.2898 140.183 47.5685V46.1944C140.183 45.3505 140.01 44.7553 139.663 44.409C139.324 44.0628 138.773 43.8898 138.008 43.8898H136.504V49.6785ZM136.504 42.3208H137.835C138.556 42.3208 139.083 42.173 139.415 41.8772C139.746 41.5743 139.912 41.0333 139.912 40.2543V39.3453C139.912 38.6456 139.779 38.1335 139.512 37.8088C139.252 37.477 138.816 37.3111 138.203 37.3111H136.504V42.3208ZM143.45 51.2473V35.7315H144.976V47.2981L146.577 42.4074L148.839 35.7315H150.765V51.2473H149.207V38.9017L147.551 44.0413L145.247 51.2473H143.45ZM152.031 37.3111V35.7315H159.475V37.3111H156.618V51.2473H154.887V37.3111H152.031ZM160.762 51.2473V35.7315H162.288V47.2981L163.889 42.4074L166.151 35.7315H168.077V51.2473H166.518V38.9017L164.863 44.0413L162.558 51.2473H160.762ZM169.537 51.2473C169.747 50.8363 169.851 50.2158 169.851 49.3864V46.9734C169.851 45.2062 170.493 44.1277 171.777 43.7382C170.508 43.3271 169.873 42.2631 169.873 40.5464V39.2805C169.873 38.1046 170.151 37.2211 170.706 36.6295C171.261 36.0308 172.138 35.7315 173.335 35.7315H176.787V51.2473H175.056V44.6256H173.844C173.086 44.6256 172.52 44.7986 172.145 45.1448C171.77 45.4912 171.582 46.0862 171.582 46.9301V49.3646C171.582 50.1725 171.485 50.8001 171.29 51.2473H169.537ZM171.582 40.9252C171.582 41.7257 171.759 42.2811 172.113 42.5914C172.473 42.8943 173.018 43.0457 173.746 43.0457H175.056V37.3111H173.379C172.751 37.3111 172.293 37.488 172.004 37.8413C171.723 38.1876 171.582 38.7178 171.582 39.4319V40.9252ZM108.523 64.2831V58.0942H110.244V64.1532C110.244 64.8241 110.413 65.3651 110.752 65.7764C111.091 66.1803 111.56 66.3822 112.159 66.3822C112.678 66.3822 113.097 66.2271 113.414 65.917C113.731 65.6068 113.933 65.1559 114.02 64.5645V58.0942H115.719V73.61H114.02V66.7394C113.753 67.1289 113.4 67.4318 112.96 67.6481C112.527 67.8573 112.072 67.962 111.596 67.962C110.594 67.962 109.829 67.6229 109.302 66.9449C108.783 66.2669 108.523 65.3795 108.523 64.2831ZM117.526 73.61V58.0942H123.91V59.6738H119.257V64.9648H123.044V66.5229H119.257V72.0411H123.91V73.61H117.526ZM125.046 73.6315V72.0627C125.724 72.0627 126.174 71.8968 126.398 71.565C126.629 71.2259 126.755 70.6524 126.777 69.8447L127.199 58.0942H133.507V73.61H131.786V59.6738H128.811L128.454 69.7581C128.411 71.0708 128.162 72.0446 127.707 72.6795C127.253 73.3071 126.463 73.6244 125.338 73.6315H125.046ZM135.227 69.8663V61.8487C135.227 60.6297 135.527 59.6738 136.125 58.9814C136.724 58.2889 137.604 57.9427 138.765 57.9427C139.934 57.9427 140.821 58.2889 141.427 58.9814C142.033 59.6738 142.336 60.6297 142.336 61.8487V69.8663C142.336 71.0708 142.033 72.023 141.427 72.7228C140.821 73.4152 139.934 73.7614 138.765 73.7614C137.611 73.7614 136.731 73.4152 136.125 72.7228C135.527 72.023 135.227 71.0708 135.227 69.8663ZM136.926 69.9529C136.926 70.6742 137.077 71.2296 137.38 71.6191C137.691 72.0015 138.152 72.1926 138.765 72.1926C139.992 72.1926 140.605 71.4459 140.605 69.9529V61.7513C140.605 61.0371 140.453 60.4853 140.15 60.0958C139.847 59.7063 139.386 59.5116 138.765 59.5116C138.152 59.5116 137.691 59.7063 137.38 60.0958C137.077 60.4853 136.926 61.0371 136.926 61.7513V69.9529ZM143.97 73.61V58.0942H147.443C148.626 58.0942 149.484 58.379 150.018 58.9488C150.552 59.5116 150.819 60.3735 150.819 61.535V62.2597C150.819 63.1109 150.678 63.7891 150.397 64.2939C150.123 64.7918 149.657 65.1415 149.001 65.3435C150.386 65.733 151.079 66.8402 151.079 68.6652V69.9744C151.079 71.1574 150.786 72.059 150.202 72.6795C149.618 73.2998 148.73 73.61 147.54 73.61H143.97ZM145.701 72.0411H147.54C148.175 72.0411 148.64 71.8716 148.936 71.5325C149.232 71.1863 149.38 70.6524 149.38 69.9311V68.557C149.38 67.7132 149.207 67.1179 148.86 66.7717C148.521 66.4255 147.97 66.2525 147.205 66.2525H145.701V72.0411ZM145.701 64.6834H147.032C147.753 64.6834 148.28 64.5356 148.612 64.2398C148.943 63.9369 149.109 63.3959 149.109 62.6169V61.708C149.109 61.0082 148.976 60.4961 148.709 60.1715C148.449 59.8397 148.013 59.6738 147.4 59.6738H145.701V64.6834ZM152.647 73.61V58.0942H159.031V59.6738H154.379V64.9648H158.166V66.5229H154.379V72.0411H159.031V73.61H152.647ZM160.632 73.61V58.0942H162.364V65.5924L166.486 58.0942H168.228L164.311 65.1703L168.369 73.61H166.594L163.273 66.8691L162.364 68.4056V73.61H160.632ZM169.256 73.61L172.221 58.0942H174.731L177.696 73.61H175.975L175.369 70.4831H171.453L170.847 73.61H169.256ZM171.669 69.0006H175.131L173.379 60.0525L171.669 69.0006Z" fill="white"/>
<path d="M108.195 28.885L111.16 13.3691H113.67L116.635 28.885H114.914L114.309 25.7581H110.392L109.786 28.885H108.195ZM110.608 24.2757H114.071L112.318 15.3276L110.608 24.2757ZM117.988 28.885V13.3691H119.719V20.8674L123.841 13.3691H125.583L121.666 20.4454L125.724 28.885H123.949L120.628 22.1441L119.719 23.6806V28.885H117.988ZM126.611 28.885L129.576 13.3691H132.086L135.051 28.885H133.33L132.724 25.7581H128.807L128.202 28.885H126.611ZM129.024 24.2757H132.486L130.733 15.3276L129.024 24.2757ZM136.046 27.3595H137.041C137.287 27.0852 137.456 26.7752 137.55 26.4288C137.651 26.0754 137.712 25.6319 137.734 25.098L138.329 13.3691H144.561V27.3595H145.73V31.0166H144.042V28.885H137.712V31.0166H136.046V27.3595ZM138.708 27.3595H142.808V14.9489H139.93L139.411 25.0765C139.375 25.6607 139.306 26.1259 139.205 26.4721C139.105 26.8183 138.938 27.1141 138.708 27.3595ZM147.245 28.885V13.3691H153.628V14.9489H148.976V20.2398H152.763V21.7979H148.976V27.3162H153.628V28.885H147.245ZM155.208 28.885V13.3691H157.621L160.175 25.7581L162.631 13.3691H165.044V28.885H163.41V16.4096L160.943 28.8635H159.287L156.712 16.5178V28.885H155.208ZM166.829 28.885V13.3691H168.354V24.9358L169.956 20.0451L172.217 13.3691H174.143V28.885H172.585V16.5394L170.93 21.679L168.625 28.885H166.829ZM175.604 28.885C175.813 28.4739 175.918 27.8535 175.918 27.024V24.6111C175.918 22.8438 176.56 21.7654 177.844 21.3758C176.574 20.9648 175.939 19.9008 175.939 18.184V16.9181C175.939 15.7423 176.217 14.8587 176.772 14.2672C177.328 13.6685 178.204 13.3691 179.402 13.3691H182.853V28.885H181.122V22.2632H179.91C179.153 22.2632 178.587 22.4362 178.212 22.7825C177.836 23.1289 177.649 23.7239 177.649 24.5678V27.0023C177.649 27.8102 177.551 28.4378 177.357 28.885H175.604ZM177.649 18.5627C177.649 19.3634 177.826 19.9189 178.179 20.229C178.54 20.532 179.084 20.6835 179.813 20.6835H181.122V14.9489H179.445C178.817 14.9489 178.359 15.1256 178.071 15.479C177.789 15.8253 177.649 16.3555 177.649 17.0696V18.5627Z" fill="white"/>
<path d="M44.8325 46.6529C44.4334 46.6529 44.0508 46.8114 43.7687 47.0934C43.4867 47.3756 43.3281 47.7582 43.3281 48.1573C43.3281 48.5563 43.4867 48.9389 43.7687 49.2211C44.0508 49.5031 44.4334 49.6617 44.8325 49.6617C45.2316 49.6617 45.6142 49.5031 45.8964 49.2211C46.1783 48.9389 46.3369 48.5563 46.3369 48.1573C46.3369 47.7582 46.1783 47.3756 45.8964 47.0934C45.6142 46.8114 45.2316 46.6529 44.8325 46.6529ZM48.0649 45.2298C48.0597 44.8271 47.8974 44.4422 47.6126 44.1574C47.3278 43.8726 46.9429 43.7104 46.5402 43.7051C46.1393 43.7104 45.7567 43.8734 45.4751 44.1588C45.1936 44.4441 45.0358 44.8289 45.0358 45.2298C45.0358 45.6289 45.1944 46.0115 45.4764 46.2937C45.7585 46.5756 46.1411 46.7342 46.5402 46.7342C46.7457 46.7344 46.949 46.6929 47.1381 46.6126C47.3272 46.5321 47.4981 46.4144 47.6405 46.2662C47.783 46.1182 47.894 45.9428 47.967 45.7506C48.0397 45.5585 48.0731 45.3538 48.0649 45.1485V45.2298ZM48.2479 46.6529C47.8488 46.6529 47.4662 46.8114 47.1841 47.0934C46.9021 47.3756 46.7435 47.7582 46.7435 48.1573C46.7435 48.5582 46.9013 48.943 47.1828 49.2282C47.4644 49.5137 47.847 49.6767 48.2479 49.682C48.6506 49.6767 49.0355 49.5145 49.3203 49.2297C49.6051 48.9448 49.7673 48.56 49.7726 48.1573C49.7673 47.7564 49.6043 47.3738 49.3189 47.0922C49.0336 46.8106 48.6488 46.6529 48.2479 46.6529Z" fill="white"/>
<path d="M46.5411 5.07883C42.9167 11.9 41.973 19.8296 43.895 27.311C45.8172 34.7923 50.4662 41.285 56.9296 45.5145C56.157 45.9618 55.4252 46.4497 54.6933 46.958C51.0998 44.4399 48.0382 41.238 45.6834 37.5356C43.3284 33.8331 41.7266 29.7027 40.9696 25.3809C40.2123 21.0588 40.3147 16.6298 41.2706 12.3474C42.2267 8.06496 44.0178 4.01301 46.5411 0.42334V5.07883Z" fill="white"/>
<path d="M46.5391 0.42334C50.2468 5.67994 52.3556 11.8964 52.6117 18.3239C52.8679 24.7514 51.2602 31.1159 47.9825 36.6508C47.4742 35.8783 46.9863 35.0651 46.5391 34.2316C48.9414 29.7485 50.1986 24.7413 50.1986 19.6552C50.1986 14.5691 48.9414 9.56183 46.5391 5.07883V0.42334Z" fill="white"/>
<path d="M46.5337 88.8371C48.9424 84.3567 50.2 79.3476 50.193 74.2608C50.1878 69.1312 48.9088 64.0831 46.4713 59.5697C44.0336 55.0561 40.5133 51.2187 36.2266 48.4014C36.9991 47.9542 37.731 47.4662 38.4628 46.958C42.0547 49.4777 45.1145 52.6806 47.4674 56.3839C49.8204 60.0869 51.4204 64.2177 52.1756 68.5396C52.9308 72.8615 52.8266 77.2899 51.869 81.5717C50.9115 85.8533 49.1192 89.9042 46.5947 93.4926L46.5337 88.8371Z" fill="white"/>
<path d="M46.5261 93.4928C42.8351 88.2447 40.7356 82.0434 40.4797 75.6324C40.2237 69.2212 41.8219 62.8725 45.0827 57.3467C45.591 58.1395 46.0789 58.9324 46.5261 59.7659C44.1376 64.2533 42.8884 69.2589 42.8884 74.3423C42.8884 79.4257 44.1376 84.4313 46.5261 88.9187V93.4928Z" fill="white"/>
<path d="M88.4182 46.9581C81.597 43.3337 73.6674 42.39 66.1861 44.312C58.7047 46.2342 52.2121 50.8832 47.9825 57.3466C47.5352 56.574 47.0473 55.8422 46.5391 55.1103C49.0587 51.5185 52.2617 48.4586 55.9649 46.1057C59.668 43.7527 63.7988 42.153 68.1206 41.3977C72.4425 40.6425 76.8711 40.7466 81.1528 41.7041C85.4344 42.6618 89.4853 44.4541 93.0737 46.9784L88.4182 46.9581Z" fill="white"/>
<path d="M93.068 46.958C87.8199 50.6491 81.6186 52.7483 75.2076 53.0043C68.7964 53.2604 62.4477 51.6623 56.9219 48.4014C57.7147 47.8932 58.5076 47.4053 59.3411 46.958C63.8242 49.3604 68.8314 50.6174 73.9175 50.6174C79.0036 50.6174 84.0108 49.3604 88.4939 46.958H93.068Z" fill="white"/>
<path d="M4.65549 46.958C9.13603 49.3667 14.1449 50.6241 19.2319 50.6174C24.3615 50.6121 29.4095 49.3331 33.9229 46.8954C38.4365 44.4579 42.2739 40.9376 45.0912 36.6509C45.5385 37.4234 46.0264 38.1553 46.5346 38.8871C44.0103 42.4741 40.8039 45.5286 37.0986 47.8757C33.3931 50.2228 29.2615 51.8168 24.9398 52.5664C20.6181 53.3159 16.1912 53.2063 11.9118 52.2439C7.63251 51.2817 3.58477 49.4854 0 46.958H4.65549Z" fill="white"/>
<path d="M0 46.958C5.2566 43.2503 11.473 41.1415 17.9005 40.8853C24.3281 40.6294 30.6925 42.2368 36.2275 45.5146C35.4549 46.0228 34.6418 46.5107 33.8082 46.958C29.3209 44.5695 24.3153 43.3204 19.2319 43.3204C14.1484 43.3204 9.14286 44.5695 4.65549 46.958H0Z" fill="white"/>
<path d="M35.6974 36.1222C34.5008 32.4391 32.4495 29.0914 29.7111 26.353C26.9727 23.6146 23.625 21.5633 19.9419 20.3667L16.5469 16.9717L18.4579 17.4189C23.3735 18.5555 27.8709 21.0508 31.4367 24.6203C35.0025 28.1898 37.4933 32.6896 38.6249 37.6063L39.0721 39.5173L35.6974 36.1222Z" fill="white"/>
<path d="M39.0924 39.5173L37.1814 39.0497C32.2647 37.9179 27.7649 35.4272 24.1955 31.8613C20.626 28.2955 18.1307 23.7984 16.9941 18.8827L16.5469 16.9717L19.9419 20.3667C21.1385 24.0499 23.19 27.3975 25.9282 30.136C28.6666 32.8744 32.0143 34.9256 35.6974 36.1222L39.0924 39.5173Z" fill="white"/>
<path d="M73.1771 73.6107C71.9903 69.928 69.9443 66.5805 67.2083 63.8445C64.4723 61.1086 61.1247 59.0626 57.4419 57.8755L54.0469 54.4805L55.9579 54.9074C60.8691 56.058 65.3614 58.5578 68.9282 62.1246C72.4948 65.6915 74.9946 70.1835 76.1452 75.0948L76.5721 77.0057L73.1771 73.6107Z" fill="white"/>
<path d="M76.5253 76.9442L74.6143 76.5173C69.703 75.3664 65.211 72.8669 61.6442 69.3001C58.0773 65.7332 55.5776 61.2412 54.4269 56.3299L54 54.4189L57.3951 57.814C58.5797 61.5146 60.6313 64.8788 63.3789 67.6263C66.1264 70.3739 69.4906 72.4255 73.1912 73.6102L76.5253 76.9442Z" fill="white"/>
<path d="M57.3951 36.1222C61.0841 34.9283 64.4385 32.8782 67.1838 30.14C69.9291 27.4018 71.9877 24.0527 73.1912 20.3667L76.5863 16.9717L76.1593 18.8827C75.0091 23.802 72.5018 28.3 68.9224 31.865C65.3429 35.4302 60.8348 37.9194 55.911 39.0497L54 39.497L57.3951 36.1222Z" fill="white"/>
<path d="M54 39.5173L54.4269 37.6063C55.5688 32.691 58.0657 28.1941 61.634 24.626C65.2021 21.0577 69.699 18.561 74.6143 17.4189L76.5253 16.9717L73.1912 20.3667C69.5063 21.5558 66.1573 23.6048 63.4212 26.3445C60.685 29.0841 58.6402 32.4358 57.456 36.1222L54 39.5173Z" fill="white"/>
<path d="M19.9466 73.6107C23.6261 72.4133 26.9707 70.364 29.7085 67.6297C32.4463 64.8954 34.4998 61.5534 35.7021 57.8755L39.0972 54.4805L38.6296 56.3305C37.4877 61.2458 34.9908 65.7427 31.4225 69.3108C27.8545 72.879 23.3575 75.3757 18.4422 76.5178L16.5312 76.9448L19.9466 73.6107Z" fill="white"/>
<path d="M16.5469 76.9442L16.9941 75.0332C18.1362 70.1179 20.6329 65.621 24.2012 62.0529C27.7694 58.4847 32.2661 55.988 37.1814 54.8459L39.0924 54.4189L35.6974 57.814C32.0043 59.0043 28.6483 61.0582 25.9082 63.8056C23.168 66.5527 21.1226 69.914 19.9419 73.6102L16.5469 76.9442Z" fill="white"/>
</g>
<defs>
<clipPath id="clip0_7_882">
<rect width="185" height="93.5165" fill="white" transform="translate(0 0.42334)"/>
</clipPath>
</defs>
</svg>
