<svg width="40" height="41" viewBox="0 0 40 41" fill="none" xmlns="http://www.w3.org/2000/svg">
<path d="M19.9959 2.12598C8.24594 2.19931 1.71094 9.12931 1.71094 20.4443C1.71094 32.0543 8.0826 38.7226 20.0059 38.7926C31.9176 38.7226 38.0709 32.5593 38.2909 20.4443C38.0876 8.70764 31.5943 2.20098 19.9959 2.12598ZM20.0059 37.126C9.02594 37.061 3.58594 31.6093 3.3776 20.4593C3.5776 9.46764 9.1726 3.86098 19.9943 3.79264C27.4493 3.84098 36.3859 6.77598 36.6226 20.4443C36.4193 31.6043 30.9809 37.061 20.0043 37.126H20.0059Z" fill="#333333"/>
<path d="M20.9891 18.4346H19.0091C18.5491 18.4346 18.1758 18.8079 18.1758 19.2679C18.1758 19.7279 18.5491 20.1012 19.0091 20.1012H20.1558V27.0229C20.1558 27.4829 20.5291 27.8562 20.9891 27.8562C21.4491 27.8562 21.8224 27.4829 21.8224 27.0229V19.2679C21.8224 18.8079 21.4491 18.4346 20.9891 18.4346Z" fill="#333333"/>
<path d="M20 15.5679C20.6904 15.5679 21.25 15.0082 21.25 14.3179C21.25 13.6275 20.6904 13.0679 20 13.0679C19.3096 13.0679 18.75 13.6275 18.75 14.3179C18.75 15.0082 19.3096 15.5679 20 15.5679Z" fill="#333333"/>
</svg>
