<svg width="91" height="46" viewBox="0 0 91 46" fill="none" xmlns="http://www.w3.org/2000/svg">
<path d="M53.436 25.0001V17.368H55.1019C55.6838 17.368 56.1149 17.5312 56.3952 17.8576C56.6755 18.1805 56.8157 18.64 56.8157 19.2361V20.1515C56.8157 21.3792 56.2231 21.993 55.038 21.993H54.2876V25.0001H53.436ZM54.2876 21.2266H55.038C55.3609 21.2266 55.5969 21.1468 55.7459 20.9871C55.8985 20.8239 55.9747 20.5631 55.9747 20.2047V19.1882C55.9747 18.8334 55.9056 18.5708 55.7672 18.4005C55.6288 18.2302 55.407 18.145 55.1019 18.145H54.2876V21.2266ZM57.2627 25.0001L58.721 17.368H59.9558L61.4141 25.0001H60.5679L60.2698 23.462H58.3432L58.0451 25.0001H57.2627ZM58.4496 22.7328H60.1527L59.2905 18.3313L58.4496 22.7328ZM62.0368 23.1586V22.4188H62.8298V23.2012C62.8298 23.5524 62.9043 23.8239 63.0534 24.0155C63.2024 24.2071 63.4259 24.3029 63.724 24.3029C64.3201 24.3029 64.6181 23.9144 64.6181 23.1373V22.5359C64.6181 22.1669 64.5347 21.8866 64.368 21.695C64.2047 21.4998 63.9617 21.4022 63.6388 21.4022H63.2769V20.6412H63.6814C63.9688 20.6412 64.1959 20.5489 64.3626 20.3644C64.5329 20.1799 64.6181 19.9227 64.6181 19.5927V19.2467C64.6181 18.8493 64.5454 18.5531 64.3999 18.3579C64.258 18.1628 64.0327 18.0652 63.724 18.0652C63.4259 18.0652 63.2024 18.161 63.0534 18.3526C62.9043 18.5442 62.8298 18.8156 62.8298 19.1669V19.6832H62.0475V19.1988C62.0475 18.5992 62.1876 18.1326 62.4679 17.7991C62.7518 17.462 63.1775 17.2935 63.7453 17.2935C64.3165 17.2935 64.7458 17.4655 65.0332 17.8097C65.3242 18.1503 65.4697 18.6187 65.4697 19.2148V19.4064C65.4697 19.8038 65.3898 20.1391 65.2302 20.4123C65.074 20.682 64.8416 20.8736 64.5329 20.9871C64.8452 21.0936 65.0794 21.2834 65.2355 21.5566C65.3916 21.8298 65.4697 22.1633 65.4697 22.5572V23.1586C65.4697 23.7547 65.3242 24.223 65.0332 24.5637C64.7458 24.9043 64.3165 25.0746 63.7453 25.0746C63.1775 25.0746 62.75 24.9043 62.4626 24.5637C62.1787 24.223 62.0368 23.7547 62.0368 23.1586ZM66.2946 25.0001V17.368H68.0031C68.585 17.368 69.0072 17.5081 69.2698 17.7884C69.5323 18.0652 69.6636 18.4892 69.6636 19.0605V19.417C69.6636 19.8357 69.5944 20.1693 69.456 20.4176C69.3212 20.6625 69.0924 20.8345 68.7695 20.9339C69.4507 21.1255 69.7913 21.6701 69.7913 22.5678V23.2118C69.7913 23.7937 69.6476 24.2372 69.3602 24.5424C69.0728 24.8475 68.6364 25.0001 68.051 25.0001H66.2946ZM67.1462 24.2284H68.051C68.3632 24.2284 68.5921 24.145 68.7375 23.9782C68.883 23.8079 68.9558 23.5453 68.9558 23.1905V22.5146C68.9558 22.0995 68.8706 21.8067 68.7003 21.6364C68.5335 21.4661 68.2621 21.381 67.886 21.381H67.1462V24.2284ZM67.1462 20.6092H67.8008C68.1556 20.6092 68.4147 20.5365 68.5779 20.391C68.7411 20.242 68.8227 19.9759 68.8227 19.5927V19.1456C68.8227 18.8014 68.7571 18.5495 68.6258 18.3898C68.498 18.2266 68.2834 18.145 67.9818 18.145H67.1462V20.6092ZM70.5631 25.0001V17.368H71.3135V23.0575L72.1012 20.6518L73.2136 17.368H74.1609V25.0001H73.3945V18.9274L72.5802 21.4555L71.4466 25.0001H70.5631ZM74.7836 18.145V17.368H78.4454V18.145H77.0403V25.0001H76.1887V18.145H74.7836ZM79.0787 25.0001V17.368H79.8291V23.0575L80.6168 20.6518L81.7292 17.368H82.6766V25.0001H81.9101V18.9274L81.0958 21.4555L79.9622 25.0001H79.0787ZM83.3951 25.0001C83.498 24.7979 83.5494 24.4927 83.5494 24.0847V22.8978C83.5494 22.0285 83.8652 21.498 84.4968 21.3064C83.8723 21.1042 83.56 20.5808 83.56 19.7364V19.1137C83.56 18.5353 83.6967 18.1007 83.9699 17.8097C84.2431 17.5152 84.6742 17.368 85.2632 17.368H86.961V25.0001H86.1094V21.7429H85.5133C85.1408 21.7429 84.8622 21.828 84.6777 21.9983C84.4932 22.1687 84.401 22.4614 84.401 22.8765V24.074C84.401 24.4714 84.3531 24.7801 84.2573 25.0001H83.3951ZM84.401 19.9227C84.401 20.3165 84.4879 20.5897 84.6618 20.7423C84.8392 20.8913 85.1071 20.9658 85.4654 20.9658H86.1094V18.145H85.2845C84.9758 18.145 84.7505 18.232 84.6085 18.4058C84.4702 18.5761 84.401 18.8369 84.401 19.1882V19.9227ZM53.3828 31.4123V28.368H54.229V31.3484C54.229 31.6784 54.3124 31.9445 54.4792 32.1468C54.646 32.3455 54.8766 32.4448 55.1711 32.4448C55.4266 32.4448 55.6323 32.3685 55.7885 32.216C55.9446 32.0634 56.0439 31.8416 56.0865 31.5507V28.368H56.9221V36.0001H56.0865V32.6205C55.9552 32.8121 55.7814 32.9611 55.5649 33.0675C55.352 33.1704 55.1285 33.2219 54.8943 33.2219C54.4011 33.2219 54.025 33.0551 53.766 32.7216C53.5105 32.3881 53.3828 31.9516 53.3828 31.4123ZM57.8109 36.0001V28.368H60.9511V29.145H58.6625V31.7476H60.5253V32.514H58.6625V35.2284H60.9511V36.0001H57.8109ZM61.5099 36.0107V35.239C61.8434 35.239 62.0652 35.1574 62.1752 34.9942C62.2887 34.8274 62.3508 34.5453 62.3615 34.148L62.569 28.368H65.6719V36.0001H64.8257V29.145H63.3621L63.1864 34.1054C63.1651 34.7511 63.0427 35.2301 62.8192 35.5424C62.5956 35.8511 62.2071 36.0072 61.6536 36.0107H61.5099ZM66.5182 34.1586V30.2148C66.5182 29.6152 66.6654 29.145 66.9599 28.8044C67.2544 28.4638 67.6873 28.2935 68.2585 28.2935C68.8333 28.2935 69.2698 28.4638 69.5678 28.8044C69.8659 29.145 70.0149 29.6152 70.0149 30.2148V34.1586C70.0149 34.7511 69.8659 35.2195 69.5678 35.5637C69.2698 35.9043 68.8333 36.0746 68.2585 36.0746C67.6908 36.0746 67.2579 35.9043 66.9599 35.5637C66.6654 35.2195 66.5182 34.7511 66.5182 34.1586ZM67.3538 34.2012C67.3538 34.556 67.4283 34.8292 67.5773 35.0208C67.7299 35.2089 67.9569 35.3029 68.2585 35.3029C68.8617 35.3029 69.1633 34.9356 69.1633 34.2012V30.1669C69.1633 29.8156 69.0888 29.5442 68.9398 29.3526C68.7908 29.161 68.5637 29.0652 68.2585 29.0652C67.9569 29.0652 67.7299 29.161 67.5773 29.3526C67.4283 29.5442 67.3538 29.8156 67.3538 30.1669V34.2012ZM70.8185 36.0001V28.368H72.527C73.1089 28.368 73.5311 28.5081 73.7937 28.7884C74.0563 29.0652 74.1875 29.4892 74.1875 30.0605V30.417C74.1875 30.8357 74.1183 31.1693 73.98 31.4176C73.8451 31.6625 73.6163 31.8345 73.2934 31.9339C73.9746 32.1255 74.3153 32.6701 74.3153 33.5678V34.2118C74.3153 34.7937 74.1716 35.2372 73.8842 35.5424C73.5968 35.8475 73.1603 36.0001 72.5749 36.0001H70.8185ZM71.6701 35.2284H72.5749C72.8871 35.2284 73.116 35.145 73.2615 34.9782C73.4069 34.8079 73.4797 34.5453 73.4797 34.1905V33.5146C73.4797 33.0995 73.3945 32.8067 73.2242 32.6364C73.0574 32.4661 72.786 32.381 72.4099 32.381H71.6701V35.2284ZM71.6701 31.6092H72.3247C72.6796 31.6092 72.9386 31.5365 73.1018 31.391C73.265 31.242 73.3466 30.9759 73.3466 30.5927V30.1456C73.3466 29.8014 73.281 29.5495 73.1497 29.3898C73.022 29.2266 72.8073 29.145 72.5057 29.145H71.6701V31.6092ZM75.087 36.0001V28.368H78.2271V29.145H75.9386V31.7476H77.8014V32.514H75.9386V35.2284H78.2271V36.0001H75.087ZM79.0148 36.0001V28.368H79.8664V32.0563L81.8942 28.368H82.7511L80.8244 31.8487L82.8203 36.0001H81.9474L80.3135 32.6843L79.8664 33.4401V36.0001H79.0148ZM83.2567 36.0001L84.715 28.368H85.9497L87.408 36.0001H86.5618L86.2638 34.462H84.3371L84.0391 36.0001H83.2567ZM84.4435 33.7328H86.1467L85.2845 29.3313L84.4435 33.7328Z" fill="#1F1D1D"/>
<path d="M53.2188 14.0001L54.677 6.36792H55.9118L57.3701 14.0001H56.5238L56.2258 12.4619H54.2991L54.0011 14.0001H53.2188ZM54.4057 11.7328H56.1087L55.2465 7.33125L54.4057 11.7328ZM58.0354 14.0001V6.36792H58.8869V10.0563L60.9147 6.36792H61.7716L59.8449 9.84868L61.8409 14.0001H60.9679L59.334 10.6843L58.8869 11.44V14.0001H58.0354ZM62.2772 14.0001L63.7355 6.36792H64.9704L66.4286 14.0001H65.5824L65.2843 12.4619H63.3577L63.0597 14.0001H62.2772ZM63.4641 11.7328H65.1673L64.305 7.33125L63.4641 11.7328ZM66.9183 13.2497H67.408C67.5286 13.1148 67.612 12.9622 67.6581 12.7918C67.7078 12.618 67.738 12.3999 67.7486 12.1373L68.0413 6.36792H71.1068V13.2497H71.6817V15.0485H70.8514V14.0001H67.7379V15.0485H66.9183V13.2497ZM68.2275 13.2497H70.2447V7.14497H68.8289L68.5734 12.1267C68.5557 12.4141 68.5221 12.6428 68.4724 12.8131C68.4228 12.9834 68.341 13.129 68.2275 13.2497ZM72.4268 14.0001V6.36792H75.5669V7.14497H73.2784V9.74756H75.1412V10.5139H73.2784V13.2284H75.5669V14.0001H72.4268ZM76.344 14.0001V6.36792H77.5308L78.7869 12.4619L79.995 6.36792H81.1819V14.0001H80.3783V7.86348L79.1648 13.9894H78.3505L77.0838 7.9167V14.0001H76.344ZM82.0602 14.0001V6.36792H82.8105V12.0574L83.5983 9.65176L84.7106 6.36792H85.658V14.0001H84.8915V7.92735L84.0772 10.4555L82.9436 14.0001H82.0602ZM86.3764 14.0001C86.4794 13.7979 86.5308 13.4927 86.5308 13.0847V11.8978C86.5308 11.0285 86.8466 10.498 87.4781 10.3064C86.8537 10.1042 86.5415 9.5808 86.5415 8.73633V8.11362C86.5415 7.53527 86.678 7.10062 86.9512 6.80967C87.2244 6.51517 87.6556 6.36792 88.2446 6.36792H89.9424V14.0001H89.0909V10.7428H88.4948C88.1222 10.7428 87.8437 10.828 87.6591 10.9983C87.4746 11.1687 87.3823 11.4613 87.3823 11.8765V13.074C87.3823 13.4714 87.3344 13.7801 87.2386 14.0001H86.3764ZM87.3823 8.92261C87.3823 9.31646 87.4693 9.58967 87.6432 9.74224C87.8205 9.89126 88.0884 9.96577 88.4468 9.96577H89.0909V7.14497H88.2658C87.9571 7.14497 87.7318 7.2319 87.59 7.40576C87.4515 7.57608 87.3823 7.83687 87.3823 8.18814V8.92261Z" fill="#1F1D1D"/>
<path d="M22.0525 22.74C21.8562 22.74 21.668 22.818 21.5292 22.9567C21.3905 23.0955 21.3125 23.2837 21.3125 23.48C21.3125 23.6763 21.3905 23.8645 21.5292 24.0033C21.668 24.142 21.8562 24.22 22.0525 24.22C22.2488 24.22 22.437 24.142 22.5758 24.0033C22.7145 23.8645 22.7925 23.6763 22.7925 23.48C22.7925 23.2837 22.7145 23.0955 22.5758 22.9567C22.437 22.818 22.2488 22.74 22.0525 22.74ZM23.6425 22.04C23.6399 21.8419 23.5601 21.6526 23.42 21.5125C23.2799 21.3724 23.0906 21.2926 22.8925 21.29C22.6953 21.2926 22.5071 21.3728 22.3686 21.5132C22.2301 21.6535 22.1525 21.8428 22.1525 22.04C22.1525 22.2363 22.2305 22.4245 22.3692 22.5633C22.508 22.702 22.6962 22.78 22.8925 22.78C22.9936 22.7801 23.0936 22.7597 23.1866 22.7202C23.2796 22.6806 23.3637 22.6227 23.4337 22.5498C23.5038 22.477 23.5584 22.3907 23.5943 22.2962C23.6301 22.2017 23.6465 22.101 23.6425 22V22.04ZM23.7325 22.74C23.5362 22.74 23.348 22.818 23.2092 22.9567C23.0705 23.0955 22.9925 23.2837 22.9925 23.48C22.9925 23.6772 23.0701 23.8665 23.2086 24.0068C23.3471 24.1472 23.5353 24.2274 23.7325 24.23C23.9306 24.2274 24.1199 24.1476 24.26 24.0075C24.4001 23.8674 24.4799 23.6781 24.4825 23.48C24.4799 23.2828 24.3997 23.0946 24.2593 22.9561C24.119 22.8176 23.9297 22.74 23.7325 22.74Z" fill="#1F1D1D"/>
<path d="M22.8932 2.29C21.1104 5.6453 20.6462 9.5458 21.5916 13.2258C22.5371 16.9058 24.8239 20.0995 28.0032 22.18C27.6232 22.4 27.2632 22.64 26.9032 22.89C25.1356 21.6514 23.6296 20.0764 22.4713 18.2552C21.3129 16.434 20.525 14.4023 20.1526 12.2764C19.7801 10.1504 19.8305 7.97185 20.3007 5.86535C20.771 3.75885 21.652 1.76573 22.8932 0V2.29Z" fill="#1F1D1D"/>
<path d="M22.8906 0C24.7144 2.58568 25.7517 5.64349 25.8777 8.80513C26.0037 11.9668 25.2129 15.0974 23.6006 17.82C23.3506 17.44 23.1106 17.04 22.8906 16.63C24.0723 14.4248 24.6907 11.9618 24.6907 9.46C24.6907 6.95818 24.0723 4.49515 22.8906 2.29V0Z" fill="#1F1D1D"/>
<path d="M22.8903 43.49C24.0751 41.2861 24.6937 38.8222 24.6903 36.32C24.6877 33.7968 24.0586 31.3137 22.8596 29.0936C21.6605 26.8734 19.9289 24.9858 17.8203 23.6C18.2003 23.38 18.5603 23.14 18.9203 22.89C20.6871 24.1294 22.1922 25.7049 23.3496 27.5265C24.507 29.348 25.294 31.3799 25.6655 33.5058C26.037 35.6317 25.9857 37.81 25.5147 39.9162C25.0437 42.0223 24.1621 44.0149 22.9203 45.78L22.8903 43.49Z" fill="#1F1D1D"/>
<path d="M22.8857 45.78C21.0701 43.1985 20.0374 40.1481 19.9115 36.9946C19.7856 33.841 20.5717 30.7181 22.1757 28C22.4257 28.39 22.6657 28.78 22.8857 29.19C21.7108 31.3973 21.0963 33.8595 21.0963 36.36C21.0963 38.8605 21.7108 41.3227 22.8857 43.53V45.78Z" fill="#1F1D1D"/>
<path d="M43.4906 22.89C40.1353 21.1072 36.2348 20.643 32.5548 21.5884C28.8748 22.5339 25.6811 24.8207 23.6006 28C23.3806 27.62 23.1406 27.26 22.8906 26.9C24.13 25.1332 25.7055 23.6281 27.5271 22.4707C29.3486 21.3133 31.3805 20.5264 33.5064 20.1549C35.6323 19.7834 37.8107 19.8346 39.9168 20.3056C42.0229 20.7767 44.0155 21.6583 45.7806 22.9L43.4906 22.89Z" fill="#1F1D1D"/>
<path d="M45.78 22.89C43.1985 24.7056 40.1481 25.7382 36.9946 25.8641C33.841 25.9901 30.7181 25.204 28 23.6C28.39 23.35 28.78 23.11 29.19 22.89C31.3952 24.0717 33.8582 24.69 36.36 24.69C38.8618 24.69 41.3248 24.0717 43.53 22.89H45.78Z" fill="#1F1D1D"/>
<path d="M2.29 22.89C4.49394 24.0748 6.95778 24.6933 9.46 24.69C11.9832 24.6874 14.4663 24.0583 16.6864 22.8592C18.9066 21.6602 20.7942 19.9286 22.18 17.82C22.4 18.2 22.64 18.56 22.89 18.92C21.6483 20.6844 20.0711 22.1869 18.2485 23.3414C16.4258 24.4959 14.3935 25.28 12.2677 25.6487C10.1419 26.0174 7.96431 25.9635 5.85934 25.4901C3.75437 25.0168 1.76332 24.1332 0 22.89H2.29Z" fill="#1F1D1D"/>
<path d="M0 22.89C2.58568 21.0662 5.64349 20.0289 8.80513 19.9029C11.9668 19.777 15.0974 20.5677 17.82 22.18C17.44 22.43 17.04 22.67 16.63 22.89C14.4227 21.7151 11.9605 21.1007 9.46 21.1007C6.9595 21.1007 4.4973 21.7151 2.29 22.89H0Z" fill="#1F1D1D"/>
<path d="M17.5606 17.56C16.972 15.7483 15.963 14.1016 14.616 12.7546C13.269 11.4076 11.6223 10.3986 9.81063 9.81001L8.14062 8.14001L9.08062 8.36001C11.4986 8.9191 13.7108 10.1465 15.4648 11.9023C17.2188 13.6581 18.444 15.8715 19.0006 18.29L19.2206 19.23L17.5606 17.56Z" fill="#1F1D1D"/>
<path d="M19.2306 19.23L18.2906 19C15.8721 18.4433 13.6587 17.2181 11.9029 15.4641C10.1471 13.7101 8.91971 11.498 8.36062 9.08001L8.14062 8.14001L9.81063 9.81001C10.3992 11.6217 11.4083 13.2684 12.7552 14.6154C14.1022 15.9624 15.7489 16.9714 17.5606 17.56L19.2306 19.23Z" fill="#1F1D1D"/>
<path d="M35.9959 36.0001C35.4121 34.1886 34.4057 32.542 33.0599 31.1962C31.7141 29.8504 30.0674 28.844 28.2559 28.2601L26.5859 26.5901L27.5259 26.8001C29.9417 27.3661 32.1514 28.5957 33.9059 30.3502C35.6603 32.1047 36.8899 34.3143 37.4559 36.7301L37.6659 37.6701L35.9959 36.0001Z" fill="#1F1D1D"/>
<path d="M37.6425 37.6401L36.7025 37.4301C34.2867 36.864 32.0771 35.6345 30.3226 33.88C28.5681 32.1255 27.3385 29.9159 26.7725 27.5001L26.5625 26.5601L28.2325 28.2301C28.8152 30.0504 29.8244 31.7052 31.1759 33.0567C32.5274 34.4082 34.1822 35.4174 36.0025 36.0001L37.6425 37.6401Z" fill="#1F1D1D"/>
<path d="M28.2325 17.5599C30.0471 16.9726 31.6971 15.9642 33.0475 14.6173C34.3979 13.2704 35.4105 11.623 36.0025 9.80989L37.6725 8.13989L37.4625 9.07989C36.8967 11.4997 35.6634 13.7122 33.9027 15.4658C32.142 17.2195 29.9245 18.4439 27.5025 18.9999L26.5625 19.2199L28.2325 17.5599Z" fill="#1F1D1D"/>
<path d="M26.5625 19.2299L26.7725 18.2899C27.3342 15.8721 28.5624 13.6601 30.3176 11.905C32.0727 10.1498 34.2847 8.92164 36.7025 8.35989L37.6425 8.13989L36.0025 9.80989C34.1899 10.3948 32.5426 11.4027 31.1967 12.7503C29.8508 14.0979 28.845 15.7466 28.2625 17.5599L26.5625 19.2299Z" fill="#1F1D1D"/>
<path d="M9.81281 36.0001C11.6227 35.4111 13.2679 34.4031 14.6146 33.0581C15.9613 31.7131 16.9714 30.0692 17.5628 28.2601L19.2328 26.5901L19.0028 27.5001C18.4411 29.9179 17.2129 32.1299 15.4577 33.885C13.7026 35.6402 11.4906 36.8683 9.07281 37.4301L8.13281 37.6401L9.81281 36.0001Z" fill="#1F1D1D"/>
<path d="M8.14062 37.64L8.36062 36.7C8.92238 34.2822 10.1505 32.0702 11.9057 30.3151C13.6609 28.5599 15.8728 27.3318 18.2906 26.77L19.2306 26.56L17.5606 28.23C15.744 28.8155 14.0932 29.8258 12.7454 31.1772C11.3975 32.5285 10.3914 34.1819 9.81063 36L8.14062 37.64Z" fill="#1F1D1D"/>
</svg>
