<svg width="21" height="21" viewBox="0 0 21 21" fill="none" xmlns="http://www.w3.org/2000/svg">
<g clip-path="url(#clip0_166_874)">
<path d="M20.2552 19.341L15.281 14.3668C16.6365 12.709 17.303 10.5936 17.1425 8.45812C16.9821 6.32268 16.007 4.3306 14.419 2.89392C12.831 1.45725 10.7515 0.6859 8.6107 0.739427C6.46991 0.792953 4.43158 1.66726 2.91734 3.1815C1.4031 4.69574 0.528793 6.73407 0.475267 8.87486C0.42174 11.0156 1.19309 13.0951 2.62976 14.6831C4.06644 16.2712 6.05852 17.2462 8.19396 17.4067C10.3294 17.5671 12.4448 16.9007 14.1027 15.5452L19.0768 20.5193C19.234 20.6711 19.4445 20.7551 19.663 20.7532C19.8815 20.7513 20.0905 20.6637 20.245 20.5092C20.3995 20.3547 20.4872 20.1457 20.4891 19.9272C20.491 19.7087 20.407 19.4982 20.2552 19.341ZM8.83266 15.7635C7.51412 15.7635 6.22519 15.3725 5.12886 14.64C4.03253 13.9074 3.17805 12.8662 2.67347 11.648C2.16888 10.4299 2.03686 9.08943 2.29409 7.79622C2.55133 6.50302 3.18627 5.31513 4.11862 4.38278C5.05097 3.45043 6.23885 2.81549 7.53206 2.55825C8.82527 2.30102 10.1657 2.43304 11.3839 2.93763C12.6021 3.44221 13.6433 4.29669 14.3758 5.39302C15.1083 6.48935 15.4993 7.77828 15.4993 9.09682C15.4973 10.8643 14.7943 12.5589 13.5445 13.8087C12.2947 15.0585 10.6002 15.7615 8.83266 15.7635Z" fill="#D5496B"/>
</g>
<defs>
<clipPath id="clip0_166_874">
<rect width="20" height="20" fill="white" transform="translate(0.5 0.763672)"/>
</clipPath>
</defs>
</svg>
