<svg width="35" height="35" viewBox="0 0 35 35" fill="none" xmlns="http://www.w3.org/2000/svg">
<g clip-path="url(#clip0_34_4962)">
<path d="M24.4127 9.02644L17.3417 16.0975L10.2706 9.02644C10.0831 8.8389 9.8287 8.73354 9.56348 8.73354C9.29827 8.73354 9.04391 8.8389 8.85637 9.02644C8.66884 9.21397 8.56348 9.46833 8.56348 9.73354C8.56348 9.99876 8.66884 10.2531 8.85637 10.4407L15.9274 17.5117L8.85637 24.5828C8.66884 24.7703 8.56348 25.0247 8.56348 25.2899C8.56348 25.5551 8.66884 25.8095 8.85637 25.997C9.04391 26.1845 9.29827 26.2899 9.56348 26.2899C9.8287 26.2899 10.0831 26.1845 10.2706 25.997L17.3417 18.9259L24.4127 25.997C24.6003 26.1845 24.8546 26.2899 25.1198 26.2899C25.385 26.2899 25.6394 26.1845 25.8269 25.997C26.0145 25.8095 26.1198 25.5551 26.1198 25.2899C26.1198 25.0247 26.0145 24.7703 25.8269 24.5828L18.7559 17.5117L25.8269 10.4407C26.0145 10.2531 26.1198 9.99876 26.1198 9.73354C26.1198 9.46833 26.0145 9.21397 25.8269 9.02644C25.6394 8.8389 25.385 8.73354 25.1198 8.73354C24.8546 8.73354 24.6003 8.8389 24.4127 9.02644Z" fill="black"/>
</g>
<defs>
<clipPath id="clip0_34_4962">
<rect width="24" height="24" fill="white" transform="translate(0.371094 17.5117) rotate(-45)"/>
</clipPath>
</defs>
</svg>
