<svg width="25" height="25" viewBox="0 0 25 25" fill="none" xmlns="http://www.w3.org/2000/svg">
<g clip-path="url(#clip0_34_4945)">
<path d="M23.3418 11.5117H13.3418V1.51172C13.3418 1.2465 13.2364 0.992148 13.0489 0.804612C12.8614 0.617076 12.607 0.511719 12.3418 0.511719C12.0766 0.511719 11.8222 0.617076 11.6347 0.804612C11.4472 0.992148 11.3418 1.2465 11.3418 1.51172V11.5117H1.3418C1.07658 11.5117 0.822226 11.6171 0.63469 11.8046C0.447154 11.9921 0.341797 12.2465 0.341797 12.5117C0.341797 12.7769 0.447154 13.0313 0.63469 13.2188C0.822226 13.4064 1.07658 13.5117 1.3418 13.5117H11.3418V23.5117C11.3418 23.7769 11.4472 24.0313 11.6347 24.2188C11.8222 24.4064 12.0766 24.5117 12.3418 24.5117C12.607 24.5117 12.8614 24.4064 13.0489 24.2188C13.2364 24.0313 13.3418 23.7769 13.3418 23.5117V13.5117H23.3418C23.607 13.5117 23.8614 13.4064 24.0489 13.2188C24.2364 13.0313 24.3418 12.7769 24.3418 12.5117C24.3418 12.2465 24.2364 11.9921 24.0489 11.8046C23.8614 11.6171 23.607 11.5117 23.3418 11.5117Z" fill="black"/>
</g>
<defs>
<clipPath id="clip0_34_4945">
<rect width="24" height="24" fill="white" transform="translate(0.341797 0.511719)"/>
</clipPath>
</defs>
</svg>
