<svg width="106" height="105" viewBox="0 0 106 105" fill="none" xmlns="http://www.w3.org/2000/svg">
<g clip-path="url(#clip0_34_1465)">
<path d="M75.5332 29.9277H30.5371V74.9237H75.5332V29.9277Z" stroke="#BF001F" stroke-width="2.1" stroke-linecap="round" stroke-linejoin="round"/>
<path d="M53.0427 80.957C68.7958 80.957 81.5661 68.1866 81.5661 52.4336C81.5661 36.6805 68.7958 23.9102 53.0427 23.9102C37.2897 23.9102 24.5193 36.6805 24.5193 52.4336C24.5193 68.1866 37.2897 80.957 53.0427 80.957Z" stroke="#BF001F" stroke-width="2.1" stroke-linecap="round" stroke-linejoin="round"/>
<path d="M76.9315 78.4432L77.991 77.4261C81.2722 74.1421 83.8738 70.2434 85.6469 65.9531C87.4201 61.6628 88.3301 57.0651 88.3248 52.4228C88.3196 47.7805 87.3992 43.1848 85.6163 38.8986C83.8335 34.6123 81.2231 30.7196 77.9345 27.443C77.586 27.0945 77.2329 26.7554 76.875 26.4258C92.2739 26.4258 95.1559 39.5785 97.2751 43.8167C99.1665 47.0438 101.55 49.9561 104.339 52.4486C101.552 54.9383 99.1694 57.8455 97.2751 61.0664C95.2124 65.3047 92.3304 78.4432 76.9315 78.4432Z" stroke="#BF001F" stroke-width="2.1" stroke-linecap="round" stroke-linejoin="round"/>
<path d="M79.0516 28.5439C78.7313 28.1766 78.3923 27.8234 78.0344 27.4844C71.4129 20.8761 62.4401 17.1647 53.0852 17.1647C43.7303 17.1647 34.7576 20.8761 28.1361 27.4844C27.7876 27.8234 27.4485 28.1766 27.1189 28.5439C27.1189 13.145 40.2575 10.2629 44.4957 8.14383C47.7194 6.24752 50.631 3.86487 53.1276 1.08008C55.6242 3.86487 58.5358 6.24752 61.7595 8.14383C65.913 10.2629 79.0516 13.145 79.0516 28.5439Z" stroke="#BF001F" stroke-width="2.1" stroke-linecap="round" stroke-linejoin="round"/>
<path d="M29.1527 26.4102C28.8042 26.7398 28.451 27.0789 28.0931 27.4273C21.4848 34.0489 17.7735 43.0216 17.7735 52.3765C17.7735 61.7314 21.4848 70.7042 28.0931 77.3257L29.1527 78.3428C13.7537 78.4417 10.8717 65.3032 8.71023 61.0508C6.8159 57.8299 4.43293 54.9227 1.64648 52.433C4.43558 49.9405 6.81881 47.0282 8.71023 43.8011C10.8717 39.5629 13.7537 26.4243 29.1527 26.4102Z" stroke="#BF001F" stroke-width="2.1" stroke-linecap="round" stroke-linejoin="round"/>
<path d="M27.0762 76.3086C27.4012 76.6759 27.7402 77.0291 28.0934 77.3822C34.7149 83.9905 43.6877 87.7019 53.0426 87.7019C62.3975 87.7019 71.3702 83.9905 77.9917 77.3822C78.3449 77.0291 78.684 76.6759 79.0089 76.3086C79.0089 91.7075 65.8703 94.5895 61.6321 96.7228C58.405 98.6142 55.4927 100.998 53.0002 103.787C50.5077 100.998 47.5954 98.6142 44.3683 96.7228C40.1724 94.5895 27.0762 91.7075 27.0762 76.3086Z" stroke="#BF001F" stroke-width="2.1" stroke-linecap="round" stroke-linejoin="round"/>
<path d="M62.1275 46.0058C62.1275 44.9321 61.8591 43.8302 61.7743 42.7565C61.7743 42.5163 61.7743 42.2762 61.7743 42.036C63.1822 41.8783 64.5668 41.5559 65.8995 41.0753C66.8319 40.7363 67.1145 39.0975 65.8995 38.8997C64.497 38.6921 63.0771 38.6259 61.6613 38.7019C61.6613 38.0379 61.6613 37.3739 61.6613 36.7241C61.5652 36.4465 61.385 36.2057 61.1457 36.0353C60.9064 35.8649 60.62 35.7734 60.3262 35.7734C60.0325 35.7734 59.746 35.8649 59.5068 36.0353C59.2675 36.2057 59.0873 36.4465 58.9912 36.7241C58.9064 37.4446 58.8782 38.1368 58.864 38.8997C57.4513 39.0268 56.1657 39.1822 54.8377 39.267C50.5995 39.5354 46.3612 39.3942 42.123 39.8886C41.1623 40.0016 40.7102 41.5698 41.8828 41.7676C45.5561 42.2764 49.2672 42.4608 52.9729 42.3185C54.8942 42.3185 56.9144 42.3185 58.9347 42.3185C58.9347 42.4881 58.9347 42.6576 58.9347 42.813C59.0059 43.9282 59.1523 45.0374 59.3726 46.133C57.4323 46.4531 55.6237 47.3207 54.1596 48.6335C52.1394 50.7244 50.1333 48.1391 47.3643 48.1391C46.146 48.0874 44.9337 48.3347 43.833 48.8592C42.7322 49.3837 41.7765 50.1695 41.0493 51.1482C37.1642 55.9374 40.9786 62.5491 45.1886 65.3887C46.2341 66.0951 47.6892 64.6824 46.9546 63.6369C44.68 60.4441 41.9817 58.1696 42.787 53.7477C44.1291 46.472 48.8335 51.0635 51.3482 51.4732C51.433 51.4732 53.0011 51.9676 53.5097 51.6709C55.8831 50.2582 58.1435 48.1815 60.5735 48.6194C60.752 48.7292 60.9572 48.7878 61.1668 48.7889C62.0695 49.1231 62.8719 49.6823 63.4979 50.4136C67.1851 54.3693 61.8308 59.4834 59.2596 62.3231C59.1054 62.4923 59.0223 62.7144 59.0276 62.9432C59.0329 63.1721 59.1262 63.3901 59.2881 63.552C59.4499 63.7138 59.6679 63.8071 59.8968 63.8124C60.1257 63.8177 60.3478 63.7346 60.517 63.5804C64.9671 59.4693 67.1851 55.1039 65.5746 49.1704C65.3845 48.3576 64.954 47.6209 64.3391 47.0565C63.7242 46.492 62.9535 46.1258 62.1275 46.0058Z" fill="#BF001F"/>
<path d="M59.2736 55.2314C55.3886 54.4261 51.1079 54.8358 47.1664 54.9489C46.9033 54.9484 46.6447 55.0172 46.4166 55.1484C46.1886 55.2797 45.9991 55.4687 45.8673 55.6964C45.7356 55.9241 45.6661 56.1826 45.666 56.4457C45.6659 56.7088 45.7351 56.9673 45.8666 57.1951C47.788 60.0206 49.78 62.606 51.9273 65.1913C51.8575 65.3671 51.8495 65.5615 51.9047 65.7424C51.96 65.9234 52.0751 66.0802 52.2313 66.187C52.3874 66.2938 52.5753 66.3444 52.7639 66.3303C52.9526 66.3162 53.1309 66.2384 53.2694 66.1096C55.938 63.3575 58.1765 60.2189 59.9094 56.7996C59.9907 56.6582 60.0389 56.5002 60.05 56.3375C60.0612 56.1747 60.0352 56.0116 59.9739 55.8605C59.9126 55.7093 59.8177 55.5741 59.6964 55.4651C59.575 55.3561 59.4305 55.2762 59.2736 55.2314ZM53.0999 63.1993C52.0403 61.3345 50.9243 59.512 49.7658 57.7037C50.7689 57.6048 51.7719 57.5059 52.7891 57.4353C54.2516 57.2488 55.7229 57.1403 57.1969 57.1104C55.8548 59.1165 54.3996 61.1226 53.0999 63.1993Z" fill="#BF001F"/>
</g>
<defs>
<clipPath id="clip0_34_1465">
<rect width="106" height="105" fill="white"/>
</clipPath>
</defs>
</svg>
