<svg width="106" height="108" viewBox="0 0 106 108" fill="none" xmlns="http://www.w3.org/2000/svg">
<path d="M52.5521 77.9417C66.3256 77.9417 77.4913 66.776 77.4913 53.0025C77.4913 39.229 66.3256 28.0635 52.5521 28.0635C38.7787 28.0635 27.613 39.229 27.613 53.0025C27.613 66.776 38.7787 77.9417 52.5521 77.9417Z" stroke="#98549C" stroke-width="2.1" stroke-linecap="round" stroke-linejoin="round"/>
<path d="M84.1308 53.5849C84.1308 60.2173 82.0439 66.6816 78.1659 72.0621C74.2878 77.4425 68.8152 81.4664 62.5232 83.5638C56.2311 85.6611 49.4387 85.7256 43.108 83.7481C36.7773 81.7704 31.2293 77.8512 27.2499 72.5452C23.2705 67.2393 21.0612 60.8158 20.9354 54.1845C20.8095 47.5534 22.7734 41.0507 26.5486 35.5976C30.3238 30.1444 35.7191 26.0174 41.9702 23.8011C48.2213 21.5846 55.0113 21.3913 61.3784 23.2484C67.9423 25.1629 73.7082 29.1546 77.8106 34.6246C81.9131 40.0945 84.1308 46.7475 84.1308 53.5849Z" stroke="#98549C" stroke-width="2.1" stroke-linecap="round" stroke-linejoin="round"/>
<path d="M43.793 23.2475C44.6146 15.6634 48.3056 14.0708 49.5948 12.8193C50.7932 11.396 51.7886 9.81362 52.5527 8.11719C53.3363 9.8173 54.3531 11.3999 55.5737 12.8193C56.8377 14.0833 60.5665 15.7265 61.3882 23.2475" stroke="#98549C" stroke-width="2.1" stroke-linecap="round" stroke-linejoin="round"/>
<path d="M61.3249 83.9082C60.5034 91.4291 56.8124 93.085 55.5104 94.349C54.314 95.7689 53.3186 97.347 52.5527 99.0385C51.7866 97.347 50.7914 95.7689 49.5948 94.349C48.3308 93.085 44.6146 91.4291 43.793 83.9082" stroke="#98549C" stroke-width="2.1" stroke-linecap="round" stroke-linejoin="round"/>
<path d="M82.8926 44.8125C90.4134 45.6342 92.0693 49.325 93.3334 50.6143C94.7533 51.8109 96.3313 52.8062 98.0229 53.5722C96.331 54.3269 94.7526 55.3139 93.3334 56.5046C92.0693 57.7687 90.4134 61.4849 82.8926 62.3066" stroke="#98549C" stroke-width="2.1" stroke-linecap="round" stroke-linejoin="round"/>
<path d="M22.2317 62.3444C14.6475 61.5229 13.0548 57.8319 11.8034 56.5426C10.3828 55.3373 8.79997 54.3375 7.10132 53.5722C8.79775 52.8081 10.3801 51.8127 11.8034 50.6143C13.0674 49.3503 14.7107 45.6342 22.2317 44.8125" stroke="#98549C" stroke-width="2.1" stroke-linecap="round" stroke-linejoin="round"/>
<path d="M60.5156 23.0213C65.066 16.9793 69.0857 17.447 70.83 17.0173C72.5886 16.4123 74.2527 15.5612 75.7723 14.4893C75.5665 16.3413 75.6176 18.2128 75.924 20.051C76.3917 21.7826 78.7175 25.107 75.5828 31.9706" stroke="#98549C" stroke-width="2.1" stroke-linecap="round" stroke-linejoin="round"/>
<path d="M44.6011 84.1357C40.0506 90.1777 36.031 89.7102 34.2741 90.1399C32.5174 90.7493 30.854 91.6 29.3317 92.6678C29.5447 90.825 29.4979 88.9613 29.1927 87.1314C28.725 85.3871 26.3993 82.0754 29.534 75.1992" stroke="#98549C" stroke-width="2.1" stroke-linecap="round" stroke-linejoin="round"/>
<path d="M75.0156 31.3757C82.0057 28.5064 85.2289 30.9587 86.948 31.4895C88.7691 31.857 90.632 31.9718 92.4844 31.8308C91.362 33.3154 90.4515 34.9491 89.7794 36.6846C89.2864 38.4164 89.6025 42.4486 83.4593 46.7968" stroke="#98549C" stroke-width="2.1" stroke-linecap="round" stroke-linejoin="round"/>
<path d="M30.1161 75.7814C23.1135 78.6634 19.8902 76.2111 18.1712 75.6677C16.3504 75.2981 14.4878 75.179 12.6348 75.3138C13.7583 73.8343 14.6687 72.2047 15.3397 70.4725C15.8328 68.7408 15.5167 64.7086 21.7231 60.3604" stroke="#98549C" stroke-width="2.1" stroke-linecap="round" stroke-linejoin="round"/>
<path d="M44.6011 23.0204C40.0506 16.9784 36.031 17.446 34.2741 17.0163C32.5203 16.4093 30.8607 15.5583 29.3444 14.4883C29.5503 16.3403 29.4993 18.2118 29.1927 20.05C28.725 21.7817 26.3993 25.1061 29.534 31.9696" stroke="#98549C" stroke-width="2.1" stroke-linecap="round" stroke-linejoin="round"/>
<path d="M60.5156 84.1357C65.066 90.1777 69.0857 89.7102 70.83 90.1399C72.5915 90.7471 74.2595 91.598 75.785 92.6678C75.5721 90.825 75.6188 88.9613 75.924 87.1314C76.3917 85.3871 78.7175 82.0754 75.5828 75.1992" stroke="#98549C" stroke-width="2.1" stroke-linecap="round" stroke-linejoin="round"/>
<path d="M30.1035 31.3757C23.1135 28.5064 19.8902 30.9587 18.1712 31.4895C16.3501 31.857 14.4871 31.9718 12.6348 31.8308C13.7572 33.3154 14.6676 34.9491 15.3397 36.6846C15.8201 38.4164 15.5167 42.4486 21.7231 46.7968" stroke="#98549C" stroke-width="2.1" stroke-linecap="round" stroke-linejoin="round"/>
<path d="M75.0039 75.7814C82.0066 78.6634 85.2298 76.2111 86.949 75.6677C88.7697 75.2981 90.6324 75.179 92.4854 75.3138C91.362 73.8343 90.4514 72.2047 89.7803 70.4725C89.2873 68.7408 89.6034 64.7086 83.3844 60.3604" stroke="#98549C" stroke-width="2.1" stroke-linecap="round" stroke-linejoin="round"/>
<path d="M34.4163 22.9069C34.4163 11.2905 43.6057 9.12903 46.5761 7.52373C48.8472 6.07502 50.881 4.28429 52.6055 2.21484C54.3266 4.28759 56.3609 6.0788 58.6349 7.52373C61.5926 9.12903 70.7821 11.3158 70.7821 22.9069" stroke="#98549C" stroke-width="2.1" stroke-linecap="round" stroke-linejoin="round"/>
<path d="M70.7429 84.3125C70.7429 95.9288 61.5535 98.103 58.5957 99.7083C56.3203 101.146 54.2856 102.934 52.5663 105.004C50.8435 102.937 48.8094 101.15 46.5369 99.7083C43.5665 98.103 34.377 95.9162 34.377 84.3125" stroke="#98549C" stroke-width="2.1" stroke-linecap="round" stroke-linejoin="round"/>
<path d="M70.7424 22.9569C80.9305 17.3952 87.2379 24.4105 90.0693 26.2434C92.4357 27.5571 94.9956 28.4871 97.6534 28.9989C96.6539 31.5015 96.0567 34.1465 95.8838 36.8358C95.8838 39.9832 98.0706 48.1235 90.0568 53.7231" stroke="#98549C" stroke-width="2.1" stroke-linecap="round" stroke-linejoin="round"/>
<path d="M34.329 84.1993C24.1409 89.7483 17.8335 82.7328 15.0021 80.9001C12.6357 79.5864 10.0758 78.6563 7.41797 78.1445C8.41751 75.6419 9.01473 72.9969 9.18755 70.3077C9.18755 67.1855 7.0387 59.1211 14.863 53.5342" stroke="#98549C" stroke-width="2.1" stroke-linecap="round" stroke-linejoin="round"/>
<path d="M34.329 22.9579C24.1409 17.3962 17.8335 24.4114 15.0021 26.2443C12.6357 27.558 10.0758 28.4881 7.41797 28.9999C8.41751 31.5025 9.01473 34.1475 9.18755 36.8368C9.18755 39.9716 7.03872 48.036 14.8757 53.623" stroke="#98549C" stroke-width="2.1" stroke-linecap="round" stroke-linejoin="round"/>
<path d="M70.7424 84.1994C80.9305 89.7484 87.2379 82.733 90.0693 80.9003C92.4357 79.5864 94.9956 78.6564 97.6534 78.1446C96.6539 75.642 96.0567 72.997 95.8838 70.3077C95.8838 67.1856 98.0453 59.1085 90.1831 53.5215" stroke="#98549C" stroke-width="2.1" stroke-linecap="round" stroke-linejoin="round"/>
<path d="M62.2851 50.7022C61.35 50.4406 60.3652 50.4103 59.4158 50.6137L59.6812 50.2472C60.6129 49.7829 61.3642 49.0228 61.8174 48.0857C62.3989 46.9734 61.1349 45.3301 59.9467 46.2023C59.0588 46.8505 58.2709 47.6255 57.6082 48.5028C56.7356 48.2611 55.9251 47.8346 55.2315 47.2524C54.5381 46.6701 53.9777 45.9455 53.5886 45.1279C53.3611 44.3189 51.9834 44.4453 52.0718 45.3301C52.2303 46.4898 52.7149 47.5805 53.4689 48.4756C54.223 49.3707 55.2157 50.0332 56.3315 50.3862C55.7793 51.4127 55.2814 52.4675 54.84 53.5463C54.2839 54.8734 56.2304 55.7836 57.1405 54.8734C58.0507 53.9634 61.6531 51.2584 61.9438 54.9998C62.0267 55.6764 61.9561 56.363 61.7373 57.0086C61.5184 57.6541 61.157 58.2421 60.6798 58.7288C60.314 58.9989 59.8956 59.1894 59.4517 59.2877C59.0077 59.386 58.5482 59.39 58.1025 59.2995C57.6569 59.2088 57.2353 59.0258 56.8649 58.762C56.4945 58.4982 56.1836 58.1596 55.9523 57.768C55.8581 57.5939 55.7184 57.4484 55.5481 57.347C55.378 57.2457 55.1835 57.1921 54.9853 57.1921C54.7872 57.1921 54.5929 57.2457 54.4226 57.347C54.2524 57.4484 54.1128 57.5939 54.0184 57.768C53.7379 56.9899 53.3017 56.2771 52.7367 55.673C52.1718 55.0688 51.4896 54.5861 50.732 54.2541C51.2478 53.9388 51.6852 53.5103 52.0108 53.0008C52.3363 52.4914 52.5416 51.9144 52.611 51.3139C52.6806 50.7133 52.6123 50.1048 52.4116 49.5346C52.2109 48.9642 51.8828 48.4471 51.4524 48.0225C50.8318 47.3591 50.0341 46.8874 49.1537 46.6633C48.2732 46.4394 47.347 46.4723 46.4849 46.7585C44.9048 47.2388 44.5256 49.2866 43.7293 50.5506C43.6499 50.684 43.6177 50.8403 43.6375 50.9943C43.6573 51.1484 43.7281 51.2913 43.8387 51.4004C43.9492 51.5095 44.0931 51.5784 44.2474 51.5962C44.4016 51.614 44.5575 51.5796 44.69 51.4985C45.2098 51.2207 45.6661 50.8375 46.0298 50.3736C46.6492 49.1095 47.7994 48.7809 49.4933 49.2106L50.4033 51.7387C49.6677 52.616 48.6561 53.2176 47.534 53.4452C46.5228 53.7738 46.3585 55.417 47.534 55.6572C48.2655 55.7116 48.9783 55.9133 49.6299 56.25C50.2814 56.5866 50.8584 57.0513 51.326 57.6164C53.3233 60.3593 49.5944 60.9787 48.3556 61.1178C45.7264 61.4212 43.6155 59.07 43.2996 56.7568C43.2363 56.5465 43.1134 56.3589 42.9459 56.2168C42.7784 56.0747 42.5733 55.9842 42.3555 55.956C42.1375 55.928 41.9162 55.9636 41.7181 56.0586C41.52 56.1536 41.3536 56.304 41.2392 56.4915C40.1016 58.6024 41.2392 60.9029 43.2236 62.1163C44.3679 62.9199 45.688 63.4379 47.0734 63.6271C48.4588 63.8162 49.8693 63.6709 51.1871 63.2033C51.9308 62.9446 52.5996 62.5073 53.1352 61.93C53.6707 61.3525 54.0564 60.6527 54.2586 59.8917C54.6621 60.6672 55.3119 61.2868 56.1058 61.6529C56.8998 62.019 57.7928 62.1108 58.6447 61.9141C59.9432 61.7829 61.1713 61.2608 62.1666 60.4167C63.1619 59.5725 63.8777 58.4462 64.2191 57.1866C64.6362 55.4928 64.6615 51.3468 62.2851 50.7022Z" fill="#98549C"/>
<path d="M56.1438 43.3721C55.7703 43.4064 55.423 43.5791 55.1702 43.8563C54.9175 44.1333 54.7773 44.4949 54.7773 44.87C54.7773 45.2451 54.9175 45.6066 55.1702 45.8837C55.423 46.1608 55.7703 46.3335 56.1438 46.3678C56.5173 46.3335 56.8645 46.1608 57.1173 45.8837C57.3701 45.6066 57.5102 45.2451 57.5102 44.87C57.5102 44.4949 57.3701 44.1333 57.1173 43.8563C56.8645 43.5791 56.5173 43.4064 56.1438 43.3721Z" fill="#98549C"/>
</svg>
