<svg width="106" height="106" viewBox="0 0 106 106" fill="none" xmlns="http://www.w3.org/2000/svg">
<path d="M52.5961 81.6055C68.3354 81.6055 81.0947 68.8463 81.0947 53.107C81.0947 37.3677 68.3354 24.6084 52.5961 24.6084C36.8569 24.6084 24.0977 37.3677 24.0977 53.107C24.0977 68.8463 36.8569 81.6055 52.5961 81.6055Z" stroke="#8F20F7" stroke-width="2.1" stroke-linecap="round" stroke-linejoin="round"/>
<path d="M76.4648 79.0924L77.5235 78.0762C84.126 71.4604 87.8341 62.4954 87.8341 53.1487C87.8341 43.8021 84.126 34.8371 77.5235 28.2213C77.1754 27.8732 76.8224 27.5344 76.4648 27.2051C91.8504 27.2051 94.7299 40.3462 96.8472 44.5808C98.7369 47.8051 101.118 50.7148 103.905 53.2052C101.121 55.6926 98.7399 58.5973 96.8472 61.8154C94.7299 65.9653 91.8504 79.0924 76.4648 79.0924Z" stroke="#8F20F7" stroke-width="2.1" stroke-linecap="round" stroke-linejoin="round"/>
<path d="M28.7272 27.1064C28.3791 27.4358 28.0262 27.7746 27.6686 28.1227C21.0661 34.7384 17.3579 43.7033 17.3579 53.0501C17.3579 62.3968 21.0661 71.3618 27.6686 77.9774L28.7272 78.9938C13.3417 78.9938 10.4622 65.8667 8.34494 61.6179C6.45226 58.3998 4.07138 55.4952 1.28735 53.0077C4.07402 50.5174 6.45517 47.6077 8.34494 44.3834C10.4622 40.2476 13.3417 27.1205 28.7272 27.1064Z" stroke="#8F20F7" stroke-width="2.1" stroke-linecap="round" stroke-linejoin="round"/>
<path d="M52.5956 88.2389C71.9988 88.2389 87.7282 72.5095 87.7282 53.1062C87.7282 33.703 71.9988 17.9736 52.5956 17.9736C33.1923 17.9736 17.4629 33.703 17.4629 53.1062C17.4629 72.5095 33.1923 88.2389 52.5956 88.2389Z" stroke="#8F20F7" stroke-width="2.1" stroke-linecap="round" stroke-linejoin="round"/>
<path d="M59.3002 50.3398C62.7725 48.646 65.031 46.1759 61.9962 41.6166C58.0157 35.6177 50.8735 41.7578 48.1351 45.3572C47.0905 46.7687 49.3349 48.3779 50.4782 47.1781C51.1557 46.4581 51.8897 45.7665 52.5673 45.1031C54.9104 42.4589 57.1171 43.2634 59.1872 47.5167C57.2535 48.7025 55.1221 49.5777 53.1883 50.8056C53.0114 50.9215 52.8808 51.0959 52.8192 51.2981C52.7576 51.5005 52.7689 51.7179 52.8513 51.9128C52.9336 52.1076 53.0815 52.2673 53.2695 52.3643C53.4576 52.4612 53.6736 52.489 53.88 52.443C59.6389 51.5961 63.083 57.5244 59.3142 61.8578C56.8723 64.6809 52.9624 63.594 50.3229 61.9848C46.3707 59.557 45.1851 54.4332 42.9407 50.6928C42.3762 49.7187 41.1199 50.4104 41.261 51.3984C42.362 59.2041 51.4663 72.2465 60.5283 64.949C65.9909 60.6016 64.3817 52.3442 59.3002 50.3398Z" fill="#8F20F7"/>
</svg>
