<svg width="61" height="61" viewBox="0 0 61 61" fill="none" xmlns="http://www.w3.org/2000/svg">
<g clip-path="url(#clip0_34_4594)">
<path d="M51.4589 9.81836H9.44336V51.8339H51.4589V9.81836Z" fill="#855462"/>
<path d="M30.4517 1.11667L0.742188 30.8262L30.4517 60.5357L60.1612 30.8262L30.4517 1.11667Z" fill="#855462"/>
<path d="M30.4514 56.1001C44.4097 56.1001 55.7251 44.7847 55.7251 30.8264C55.7251 16.8681 44.4097 5.55273 30.4514 5.55273C16.4931 5.55273 5.17773 16.8681 5.17773 30.8264C5.17773 44.7847 16.4931 56.1001 30.4514 56.1001Z" fill="#855462"/>
<path d="M25.9238 38.8126V36.8037C25.9238 36.1568 26.0152 35.5481 26.1978 34.9774C26.388 34.399 26.6315 33.8968 26.9283 33.4707C27.2327 33.0369 27.5637 32.6184 27.9214 32.2151C28.2866 31.8041 28.6481 31.397 29.0057 30.9937C29.371 30.5904 29.702 30.1757 29.9988 29.7496C30.3031 29.3234 30.5466 28.8326 30.7293 28.2771C30.9195 27.714 31.0146 27.1128 31.0146 26.4736C31.0146 25.7736 30.9043 25.2865 30.6836 25.0126C30.4629 24.7387 30.1319 24.6017 29.6906 24.6017C28.8002 24.6017 28.3551 25.1382 28.3551 26.2111V27.9689H25.9238V26.3709C25.9238 25.0544 26.2511 24.0424 26.9055 23.3347C27.5599 22.6194 28.5111 22.2617 29.7591 22.2617C31.007 22.2617 31.9582 22.6194 32.6127 23.3347C33.2671 24.0424 33.5943 25.0544 33.5943 26.3709C33.5943 27.071 33.4992 27.7444 33.3089 28.3913C33.1187 29.0305 32.8714 29.5974 32.567 30.092C32.2702 30.5866 31.9392 31.0622 31.574 31.5188C31.2163 31.9677 30.8549 32.3901 30.4896 32.7858C30.1243 33.1739 29.7895 33.5467 29.4851 33.9044C29.1883 34.262 28.9448 34.6311 28.7546 35.0116C28.5644 35.3921 28.4692 35.7611 28.4692 36.1188C28.4692 36.2786 28.4768 36.3965 28.4921 36.4726H33.3546V38.8126H25.9238Z" fill="white"/>
</g>
<defs>
<clipPath id="clip0_34_4594">
<rect width="59.6104" height="60" fill="white" transform="translate(0.730469 0.800781)"/>
</clipPath>
</defs>
</svg>
