<svg width="61" height="61" viewBox="0 0 61 61" fill="none" xmlns="http://www.w3.org/2000/svg">
<g clip-path="url(#clip0_34_4607)">
<path d="M54.9275 5.94531H5.53516V55.3377H54.9275V5.94531Z" fill="#855462"/>
<path d="M54.9275 5.94531H5.53516V55.3377H54.9275V5.94531Z" fill="#855462"/>
<path d="M30.2325 60.3518C46.6415 60.3518 59.9436 47.0497 59.9436 30.6407C59.9436 14.2318 46.6415 0.929688 30.2325 0.929688C13.8236 0.929688 0.521484 14.2318 0.521484 30.6407C0.521484 47.0497 13.8236 60.3518 30.2325 60.3518Z" fill="#855462"/>
<path d="M24.748 35.413V33.8162H27.6062V35.6009C27.6062 36.8712 28.125 37.5063 29.1627 37.5063C29.6815 37.5063 30.0706 37.3453 30.3301 37.0233C30.5985 36.7012 30.7327 36.1376 30.7327 35.3325V33.8162C30.7327 32.9395 30.5761 32.3134 30.263 31.9376C29.9588 31.5619 29.4579 31.3741 28.7601 31.3741H27.7404V28.6233H28.9212C29.5205 28.6233 29.9723 28.4712 30.2764 28.1671C30.5806 27.854 30.7327 27.3307 30.7327 26.5971V25.5236C30.7327 24.7007 30.5985 24.1282 30.3301 23.8061C30.0706 23.4841 29.6815 23.3231 29.1627 23.3231C28.125 23.3231 27.6062 23.9537 27.6062 25.215V26.4495H24.748V25.4029C24.748 23.8553 25.1327 22.6655 25.902 21.8336C26.6713 20.9927 27.7895 20.5723 29.2566 20.5723C30.7237 20.5723 31.8374 20.9927 32.5978 21.8336C33.3671 22.6655 33.7518 23.8553 33.7518 25.4029V25.8994C33.7518 27.9568 33.0496 29.2763 31.6451 29.8578C33.0496 30.4661 33.7518 31.8124 33.7518 33.8968V35.413C33.7518 36.9606 33.3671 38.1549 32.5978 38.9957C31.8374 39.8277 30.7237 40.2437 29.2566 40.2437C27.7895 40.2437 26.6713 39.8277 25.902 38.9957C25.1327 38.1549 24.748 36.9606 24.748 35.413Z" fill="white"/>
</g>
<defs>
<clipPath id="clip0_34_4607">
<rect width="60" height="60" fill="white" transform="translate(0.341797 0.800781)"/>
</clipPath>
</defs>
</svg>
