<svg width="106" height="105" viewBox="0 0 106 105" fill="none" xmlns="http://www.w3.org/2000/svg">
<g clip-path="url(#clip0_34_1529)">
<path d="M52.9861 79.6598C68.4532 79.6598 80.9918 67.1212 80.9918 51.6541C80.9918 36.187 68.4532 23.6484 52.9861 23.6484C37.519 23.6484 24.9805 36.187 24.9805 51.6541C24.9805 67.1212 37.519 79.6598 52.9861 79.6598Z" stroke="#F3D11E" stroke-width="2.1" stroke-linecap="round" stroke-linejoin="round"/>
<path d="M52.9866 87.7505C72.5615 87.7505 88.4301 71.8818 88.4301 52.3069C88.4301 32.7319 72.5615 16.8633 52.9866 16.8633C33.4116 16.8633 17.543 32.7319 17.543 52.3069C17.543 71.8818 33.4116 87.7505 52.9866 87.7505Z" stroke="#F3D11E" stroke-width="2.1" stroke-linecap="round" stroke-linejoin="round"/>
<path d="M38.7776 19.8164C39.5583 10.008 46.0593 8.02076 48.2453 6.53034C50.088 5.02482 51.6872 3.24371 52.9862 1.25C54.2852 3.24371 55.8844 5.02482 57.7272 6.53034C59.9273 8.02076 66.4284 10.0222 67.2091 19.8306" stroke="#F3D11E" stroke-width="2.1" stroke-linecap="round" stroke-linejoin="round"/>
<path d="M67.2091 84.7852C66.4284 94.5794 59.9273 96.5808 57.7272 98.0854C55.886 99.5871 54.2869 101.363 52.9862 103.352C51.6855 101.363 50.0864 99.5871 48.2453 98.0854C46.0593 96.5808 39.5583 94.5936 38.7776 84.7852" stroke="#F3D11E" stroke-width="2.1" stroke-linecap="round" stroke-linejoin="round"/>
<path d="M65.9023 19.2775C73.397 12.9041 79.4012 16.0837 82.013 16.5805C84.3842 16.8239 86.779 16.6946 89.1102 16.1973C88.6224 18.5299 88.4979 20.9239 88.7412 23.2945C89.238 25.9063 92.4175 31.9247 86.03 39.4052" stroke="#F3D11E" stroke-width="2.1" stroke-linecap="round" stroke-linejoin="round"/>
<path d="M40.0687 85.3949C32.5883 91.7682 26.584 88.5886 23.9722 88.0918C21.601 87.8496 19.2064 87.9789 16.875 88.4751C17.3705 86.1436 17.4998 83.7491 17.2582 81.3778C16.7614 78.7661 13.5819 72.7618 19.9552 65.2812" stroke="#F3D11E" stroke-width="2.1" stroke-linecap="round" stroke-linejoin="round"/>
<path d="M85.4773 38.084C95.2715 38.8789 97.2729 45.3658 98.7633 47.5659C100.267 49.406 102.049 51.0007 104.044 52.2927C102.032 53.5784 100.231 55.1681 98.7066 57.0053C97.2161 59.2054 95.2147 65.7065 85.4062 66.4872" stroke="#F3D11E" stroke-width="2.1" stroke-linecap="round" stroke-linejoin="round"/>
<path d="M20.5097 66.5156C10.7014 65.7349 8.69991 59.2338 7.20949 57.0337C5.70779 55.1925 3.93162 53.5934 1.94336 52.2927C3.93253 50.9988 5.70901 49.4043 7.20949 47.5659C8.69991 45.3658 10.7014 38.8789 20.5097 38.084" stroke="#F3D11E" stroke-width="2.1" stroke-linecap="round" stroke-linejoin="round"/>
<path d="M86.0028 65.2246C92.3903 72.705 89.1965 78.7093 88.7139 81.3211C88.4707 83.6917 88.5952 86.0857 89.083 88.4183C86.7517 87.921 84.357 87.7916 81.9858 88.0351C79.374 88.5319 73.3555 91.7114 65.875 85.3381" stroke="#F3D11E" stroke-width="2.1" stroke-linecap="round" stroke-linejoin="round"/>
<path d="M19.9689 39.3896C13.5956 31.9091 16.7752 25.8906 17.272 23.2789C17.5136 20.9076 17.3842 18.5131 16.8888 16.1816C19.2202 16.6771 21.6147 16.8064 23.986 16.5649C26.5836 16.0681 32.602 12.8885 40.0825 19.2618" stroke="#F3D11E" stroke-width="2.1" stroke-linecap="round" stroke-linejoin="round"/>
<path d="M68.8974 41.5771C64.2416 40.0299 58.9613 40.768 54.1635 40.8106C48.4424 40.6918 42.7195 40.9431 37.0308 41.5629C36.7801 41.6417 36.561 41.7984 36.4054 42.0103C36.2499 42.2222 36.166 42.4782 36.166 42.741C36.166 43.0039 36.2499 43.2599 36.4054 43.4718C36.561 43.6836 36.7801 43.8404 37.0308 43.9192C41.9224 44.4657 46.8431 44.7075 51.7647 44.6431C53.3261 44.6431 54.9442 44.7424 56.5766 44.8276C57.2154 46.8148 57.8541 48.7879 58.5212 50.7609C53.0422 48.6743 47.7051 49.1569 45.7462 56.1264C44.1423 61.8042 49.0961 70.406 55.6824 69.0718C55.9009 69.018 56.1011 68.9067 56.2622 68.7496C56.4234 68.5925 56.5396 68.3953 56.5989 68.1782C56.6583 67.9611 56.6585 67.7321 56.5997 67.5149C56.5409 67.2976 56.4251 67.1001 56.2643 66.9426C53.7945 64.8276 51.1827 63.8766 49.8768 60.5551C48.7555 57.7162 49.7207 52.7055 54.05 53.3869C56.2236 53.7227 58.3491 54.3184 60.3807 55.1612C61.5021 55.658 63.2196 54.8489 62.7228 53.3727C61.6724 50.5338 60.6504 47.6949 59.5858 44.9412C62.7166 45.1267 65.8561 44.7762 68.869 43.905C69.1252 43.8385 69.3524 43.6895 69.5157 43.4812C69.6789 43.2728 69.769 43.0165 69.7723 42.7519C69.7755 42.4872 69.6916 42.2288 69.5335 42.0165C69.3754 41.8042 69.1519 41.6498 68.8974 41.5771Z" fill="#F3D11E"/>
<path d="M54.4198 35.416H54.2778C54.0412 35.4851 53.8266 35.6145 53.6552 35.7917C53.4838 35.9689 53.3614 36.1876 53.3003 36.4264C53.2391 36.6652 53.2412 36.9158 53.3063 37.1536C53.3714 37.3914 53.4973 37.6081 53.6716 37.7824C53.8459 37.9567 54.0626 38.0826 54.3004 38.1477C54.5381 38.2128 54.7888 38.2149 55.0276 38.1537C55.2664 38.0926 55.4851 37.9702 55.6623 37.7988C55.8395 37.6274 55.9689 37.4128 56.038 37.1761V37.1336C56.0902 36.9062 56.0855 36.6694 56.0244 36.4442C55.9633 36.219 55.8477 36.0124 55.6877 35.8426C55.5277 35.6727 55.3283 35.545 55.1071 35.4706C54.886 35.3962 54.6499 35.3774 54.4198 35.416Z" fill="#F3D11E"/>
</g>
<defs>
<clipPath id="clip0_34_1529">
<rect width="106" height="105" fill="white"/>
</clipPath>
</defs>
</svg>
