<svg width="106" height="106" viewBox="0 0 106 106" fill="none" xmlns="http://www.w3.org/2000/svg">
<g clip-path="url(#clip0_34_1646)">
<mask id="mask0_34_1646" style="mask-type:luminance" maskUnits="userSpaceOnUse" x="0" y="0" width="106" height="106">
<path d="M106 0H0V106H106V0Z" fill="white"/>
</mask>
<g mask="url(#mask0_34_1646)">
<path d="M53.1072 80.7419C68.6951 80.7419 81.3316 68.1054 81.3316 52.5175C81.3316 36.9295 68.6951 24.293 53.1072 24.293C37.5193 24.293 24.8828 36.9295 24.8828 52.5175C24.8828 68.1054 37.5193 80.7419 53.1072 80.7419Z" stroke="#00BEE5" stroke-width="2.1" stroke-linecap="round" stroke-linejoin="round"/>
<path d="M88.8411 53.1745C88.8411 60.6805 86.4794 67.9964 82.0905 74.0856C77.7016 80.1749 71.508 84.7289 64.3871 87.1025C57.2662 89.4762 49.579 89.5491 42.4143 87.311C35.2496 85.073 28.9707 80.6373 24.4671 74.6324C19.9634 68.6276 17.4633 61.3579 17.3209 53.8531C17.1784 46.3484 19.4009 38.9891 23.6734 32.8176C27.946 26.6462 34.052 21.9755 41.1266 19.4671C48.2012 16.9588 55.8856 16.7399 63.0915 18.8417C70.5201 21.0083 77.0455 25.526 81.6884 31.7165C86.3313 37.9069 88.8411 45.4363 88.8411 53.1745Z" stroke="#00BEE5" stroke-width="2.1" stroke-linecap="round" stroke-linejoin="round"/>
<path d="M46.0977 18.1413C46.8702 10.2304 49.717 8.41364 50.7183 7.04033C51.7137 5.36269 52.5151 3.57737 53.1073 1.71875C53.6995 3.57737 54.501 5.36269 55.4963 7.04033C56.512 8.47087 59.3587 10.2304 60.1312 18.1413" stroke="#00BEE5" stroke-width="2.1" stroke-linecap="round" stroke-linejoin="round"/>
<path d="M60.1312 88.209C59.3587 96.1199 56.512 97.9224 55.4963 99.31C54.502 100.983 53.7005 102.763 53.1073 104.617C52.5141 102.763 51.7127 100.983 50.7183 99.31C49.717 97.8794 46.8702 96.1199 46.0977 88.209" stroke="#00BEE5" stroke-width="2.1" stroke-linecap="round" stroke-linejoin="round"/>
<path d="M88.1406 46.1514C96.0515 46.9239 97.8683 49.7707 99.2416 50.7864C100.919 51.7817 102.705 52.5832 104.563 53.1753C102.702 53.7612 100.916 54.563 99.2416 55.5643C97.8111 56.5657 96.0515 59.4125 88.1406 60.185" stroke="#00BEE5" stroke-width="2.1" stroke-linecap="round" stroke-linejoin="round"/>
<path d="M18.0743 60.1851C10.1634 59.4127 8.36095 56.5659 6.97333 55.5645C5.30338 54.5641 3.52216 53.7623 1.66602 53.1755C3.54562 52.5783 5.3504 51.7671 7.04484 50.7579C8.47537 49.7422 10.235 46.8955 18.1458 46.123" stroke="#00BEE5" stroke-width="2.1" stroke-linecap="round" stroke-linejoin="round"/>
<path d="M72.9199 23.4342C79.0712 18.3844 82.3614 19.1426 84.0494 18.8565C85.9392 18.3747 87.7679 17.6788 89.4998 16.7822C88.6032 18.5141 87.9073 20.3427 87.4255 22.2325C87.168 23.9349 87.8976 27.2251 82.8478 33.3621" stroke="#00BEE5" stroke-width="2.1" stroke-linecap="round" stroke-linejoin="round"/>
<path d="M33.2941 82.9019C27.1571 87.9517 23.8669 87.1935 22.1788 87.4796C20.289 87.9613 18.4604 88.6572 16.7285 89.5539C17.6251 87.8219 18.3211 85.9933 18.8028 84.1035C19.0603 82.4155 18.3307 79.1253 23.3805 72.9883" stroke="#00BEE5" stroke-width="2.1" stroke-linecap="round" stroke-linejoin="round"/>
<path d="M82.8615 72.9883C87.9113 79.1253 87.1531 82.4155 87.4392 84.1035C87.9209 85.9933 88.6168 87.8219 89.5135 89.5539C87.7815 88.6572 85.9529 87.9613 84.0631 87.4796C82.3608 87.2221 79.0706 87.9517 72.9336 82.9019" stroke="#00BEE5" stroke-width="2.1" stroke-linecap="round" stroke-linejoin="round"/>
<path d="M23.3805 33.3621C18.3307 27.2251 19.0889 23.9349 18.8028 22.2325C18.3211 20.3427 17.6251 18.5141 16.7285 16.7822C18.4604 17.6788 20.289 18.3747 22.1788 18.8565C23.8669 19.1283 27.1571 18.3844 33.2941 23.4342" stroke="#00BEE5" stroke-width="2.1" stroke-linecap="round" stroke-linejoin="round"/>
<path d="M60.2031 18.1549C63.9654 11.1596 67.3558 10.5874 68.7863 9.70052C70.3648 8.54409 71.8048 7.20967 73.0779 5.72363C72.8992 7.66336 72.9472 9.6173 73.221 11.5459C73.6215 13.2196 75.5384 15.9805 73.221 23.5767" stroke="#00BEE5" stroke-width="2.1" stroke-linecap="round" stroke-linejoin="round"/>
<path d="M46.0256 88.1796C42.2633 95.1892 38.8729 95.7614 37.4424 96.634C35.8639 97.7904 34.4239 99.1248 33.1508 100.611C33.322 98.6709 33.274 96.7178 33.0077 94.7886C32.6072 93.1292 30.6903 90.354 33.0077 82.7578" stroke="#00BEE5" stroke-width="2.1" stroke-linecap="round" stroke-linejoin="round"/>
<path d="M88.1268 60.2559C95.1221 64.0325 95.6943 67.4086 96.5812 68.8392C97.7377 70.4177 99.0721 71.8577 100.558 73.1307C98.6181 72.9595 96.6651 73.0076 94.7358 73.2739C93.0621 73.6744 90.3012 75.6056 82.7051 73.2739" stroke="#00BEE5" stroke-width="2.1" stroke-linecap="round" stroke-linejoin="round"/>
<path d="M18.1012 46.0793C11.0916 42.317 10.5337 38.9982 9.6468 37.4961C8.48617 35.9211 7.15217 34.4815 5.66992 33.2045C7.60989 33.3757 9.56294 33.3277 11.4921 33.0615C13.1516 32.6609 15.9268 30.744 23.5229 33.0615" stroke="#00BEE5" stroke-width="2.1" stroke-linecap="round" stroke-linejoin="round"/>
<path d="M46.026 18.1549C42.2494 11.1596 38.8733 10.5874 37.4428 9.70052C35.8643 8.54409 34.4243 7.20967 33.1512 5.72363C33.3224 7.6636 33.2744 9.61668 33.0081 11.5459C32.6076 13.2196 30.6764 15.9805 33.0081 23.5767" stroke="#00BEE5" stroke-width="2.1" stroke-linecap="round" stroke-linejoin="round"/>
<path d="M60.2031 88.1796C63.9654 95.1892 67.2842 95.7614 68.7863 96.634C70.3613 97.7946 71.8009 99.1286 73.0779 100.611C72.9067 98.6709 72.9547 96.7178 73.221 94.7886C73.6215 93.1292 75.5384 90.354 73.221 82.7578" stroke="#00BEE5" stroke-width="2.1" stroke-linecap="round" stroke-linejoin="round"/>
<path d="M18.1012 60.2559C11.0916 64.0325 10.5337 67.4086 9.6468 68.8392C8.48617 70.4142 7.15217 71.8537 5.66992 73.1307C7.60989 72.9595 9.56294 73.0076 11.4921 73.2739C13.1659 73.6744 15.9268 75.6056 23.5229 73.2739" stroke="#00BEE5" stroke-width="2.1" stroke-linecap="round" stroke-linejoin="round"/>
<path d="M88.1268 46.0793C95.1364 42.317 95.6943 38.9982 96.5812 37.4961C97.7377 35.9176 99.0721 34.4776 100.558 33.2045C98.6181 33.3757 96.6651 33.3277 94.7358 33.0615C93.0621 32.6609 90.3012 30.744 82.7051 33.0615" stroke="#00BEE5" stroke-width="2.1" stroke-linecap="round" stroke-linejoin="round"/>
<path d="M62.834 42.8181C59.8241 42.6781 56.8081 42.745 53.8073 43.0183C50.3311 43.0183 46.7548 42.5463 43.2929 42.9039C42.9135 42.8527 42.5293 42.9543 42.2248 43.1863C41.9203 43.4184 41.7204 43.7619 41.6692 44.1413C41.618 44.5207 41.7196 44.9049 41.9517 45.2094C42.1837 45.5139 42.5273 45.7137 42.9067 45.765C45.9743 46.5564 49.1388 46.908 52.3053 46.8093C53.9504 46.8093 55.7099 46.8951 57.4552 46.8093C57.4552 47.7391 57.5553 48.6689 57.6411 49.6703C54.308 49.3413 50.9176 49.3413 47.6274 49.327C47.201 49.3343 46.7941 49.507 46.4925 49.8086C46.1909 50.1102 46.0182 50.5171 46.0109 50.9435C45.6889 54.5747 45.6889 58.2273 46.0109 61.8585C45.5749 63.2874 45.7242 64.831 46.4258 66.1501L46.6261 66.5077C46.6559 66.7106 46.7338 66.9034 46.8532 67.0701C46.9726 67.2369 47.1302 67.3726 47.3127 67.4661C47.6337 67.9784 48.0966 68.3864 48.6452 68.6404C49.1938 68.8943 49.8044 68.9834 50.4026 68.8967C50.6319 68.8293 50.8336 68.6901 50.9778 68.4995C51.122 68.3089 51.2012 68.0771 51.2037 67.8381C51.4469 65.8639 48.9292 64.8483 49.5586 62.6453C50.1881 60.4422 54.1935 59.8843 56.1534 59.6984C57.3693 59.5839 57.8271 57.7242 56.4538 57.4095C54.0018 56.7107 51.3766 56.9609 49.1008 58.1105C49.1008 56.2365 49.1008 54.3482 49.1008 52.3883C52.3195 52.2596 55.5526 52.1594 58.7427 51.7446C59.272 51.7446 59.8298 51.3297 59.7869 50.7003C59.6725 49.2698 59.5294 47.968 59.3292 46.6233C60.6423 46.4838 61.937 46.2057 63.1916 45.7936C63.5131 45.6705 63.7843 45.4435 63.9621 45.1487C64.14 44.8539 64.2143 44.5082 64.1732 44.1663C64.1321 43.8245 63.978 43.5062 63.7354 43.262C63.4928 43.0177 63.1755 42.8615 62.834 42.8181Z" fill="#00BEE5"/>
<path d="M51.5481 37.8822L51.4193 38.011C51.1082 38.324 50.9342 38.7478 50.9356 39.1891C50.9369 39.6304 51.1135 40.0531 51.4265 40.3642C51.7395 40.6753 52.1633 40.8493 52.6046 40.848C53.0459 40.8466 53.4687 40.6701 53.7798 40.357L53.8942 40.2426C54.0492 40.0886 54.1723 39.9055 54.2565 39.7039C54.3408 39.5022 54.3845 39.286 54.3851 39.0675C54.3858 38.849 54.3434 38.6324 54.2604 38.4303C54.1774 38.2282 54.0554 38.0444 53.9013 37.8894C53.7473 37.7344 53.5642 37.6113 53.3626 37.527C53.1609 37.4428 52.9447 37.3991 52.7262 37.3984C52.5077 37.3978 52.2912 37.4402 52.089 37.5232C51.8869 37.6062 51.7031 37.7282 51.5481 37.8822Z" fill="#00BEE5"/>
</g>
</g>
<defs>
<clipPath id="clip0_34_1646">
<rect width="106" height="106" fill="white"/>
</clipPath>
</defs>
</svg>
