<svg width="61" height="61" viewBox="0 0 61 61" fill="none" xmlns="http://www.w3.org/2000/svg">
<g clip-path="url(#clip0_34_4584)">
<path d="M54.906 6.22461H5.51367V55.617H54.906V6.22461Z" fill="#855462"/>
<path d="M54.906 6.22461H5.51367V55.617H54.906V6.22461Z" fill="#855462"/>
<path d="M30.211 60.633C46.62 60.633 59.9221 47.3309 59.9221 30.922C59.9221 14.513 46.62 1.21094 30.211 1.21094C13.8021 1.21094 0.5 14.513 0.5 30.922C0.5 47.3309 13.8021 60.633 30.211 60.633Z" fill="#855462"/>
<path d="M26.752 25.6306V23.4971C27.1993 23.4971 27.5973 23.4523 27.9462 23.3629C28.2951 23.2645 28.5769 23.1527 28.7915 23.0274C29.0063 22.8932 29.1986 22.7099 29.3685 22.4773C29.5474 22.2358 29.6816 22.021 29.7711 21.8332C29.8605 21.6364 29.9634 21.3815 30.0797 21.0684H32.1193V40.3104H29.0868V25.6306H26.752Z" fill="white"/>
</g>
<defs>
<clipPath id="clip0_34_4584">
<rect width="60" height="60" fill="white" transform="translate(0.341797 0.800781)"/>
</clipPath>
</defs>
</svg>
