<svg width="106" height="106" viewBox="0 0 106 106" fill="none" xmlns="http://www.w3.org/2000/svg">
<path d="M53.1458 78.9284C67.8792 78.9284 79.8228 66.9847 79.8228 52.2513C79.8228 37.518 67.8792 25.5742 53.1458 25.5742C38.4125 25.5742 26.4688 37.518 26.4688 52.2513C26.4688 66.9847 38.4125 78.9284 53.1458 78.9284Z" stroke="#F7931E" stroke-width="2.1" stroke-linecap="round" stroke-linejoin="round"/>
<path d="M53.147 86.6356C71.7933 86.6356 86.9091 71.5198 86.9091 52.8735C86.9091 34.2272 71.7933 19.1113 53.147 19.1113C34.5007 19.1113 19.3848 34.2272 19.3848 52.8735C19.3848 71.5198 34.5007 86.6356 53.147 86.6356Z" stroke="#F7931E" stroke-width="2.1" stroke-linecap="round" stroke-linejoin="round"/>
<path d="M35.9609 23.8303C35.9609 12.8377 44.655 10.7825 47.4538 9.26812C49.6077 7.8957 51.5368 6.19912 53.1732 4.23828C54.8033 6.20018 56.7282 7.89701 58.8791 9.26812C61.678 10.7825 70.372 12.8377 70.3856 23.8303" stroke="#F7931E" stroke-width="2.1" stroke-linecap="round" stroke-linejoin="round"/>
<path d="M70.3173 81.9023C70.3173 92.895 61.6097 94.9502 58.8108 96.4781C56.658 97.8412 54.7326 99.5339 53.1049 101.494C51.4705 99.5354 49.5409 97.8431 47.3855 96.4781C44.5867 94.9502 35.8926 92.895 35.8926 81.9023" stroke="#F7931E" stroke-width="2.1" stroke-linecap="round" stroke-linejoin="round"/>
<path d="M70.3984 23.8704C80.0524 18.6107 86.0152 25.2225 88.6924 26.9938C90.9257 28.2319 93.3392 29.1124 95.845 29.6033C94.9035 31.9707 94.3378 34.4708 94.1684 37.0129C94.1684 40.2039 96.5346 48.8303 86.8941 54.09" stroke="#F7931E" stroke-width="2.1" stroke-linecap="round" stroke-linejoin="round"/>
<path d="M35.8802 81.8622C26.2262 87.1219 20.2634 80.5101 17.5862 78.7388C15.3529 77.5007 12.9394 76.6202 10.4336 76.1293C11.382 73.764 11.948 71.2629 12.1102 68.7197C12.1102 65.5287 9.74397 56.9158 19.3845 51.6426" stroke="#F7931E" stroke-width="2.1" stroke-linecap="round" stroke-linejoin="round"/>
<path d="M35.8802 23.8704C26.2262 18.6107 20.2634 25.2225 17.5862 26.9938C15.3529 28.2319 12.9394 29.1124 10.4336 29.6033C11.382 31.9686 11.948 34.4697 12.1102 37.0129C12.1102 40.2039 9.74397 48.8303 19.3845 54.09" stroke="#F7931E" stroke-width="2.1" stroke-linecap="round" stroke-linejoin="round"/>
<path d="M70.3984 81.8622C80.0524 87.1219 86.0152 80.5101 88.6924 78.7388C90.9257 77.5007 93.3392 76.6202 95.845 76.1293C94.9035 73.7619 94.3378 71.2618 94.1684 68.7197C94.1684 65.5287 96.5346 56.9158 86.8941 51.6426" stroke="#F7931E" stroke-width="2.1" stroke-linecap="round" stroke-linejoin="round"/>
<path d="M64.5982 42.0975C56.9858 42.0028 49.2112 42.1651 41.6124 42.7465C41.4135 42.7721 41.2308 42.8693 41.0984 43.0198C40.966 43.1704 40.893 43.364 40.893 43.5645C40.893 43.765 40.966 43.9586 41.0984 44.1092C41.2308 44.2598 41.4135 44.3569 41.6124 44.3825C47.2858 44.9512 52.99 45.1544 58.6895 44.991C58.4868 46.8815 58.392 48.7821 58.4056 50.6834C57.1 49.2895 55.4578 48.2551 53.6367 47.6797C51.8157 47.1042 49.8772 47.0071 48.0078 47.3977C43.3972 48.4524 39.0975 51.6975 40.7876 56.8625C42.2479 61.3245 47.7374 63.7853 52.0642 63.8664C54.6137 63.7577 57.0281 62.6905 58.8247 60.8783C58.9419 63.599 59.5417 66.2772 60.596 68.7881C60.657 68.8904 60.7467 68.9725 60.854 69.0243C60.9612 69.0761 61.0813 69.0952 61.1994 69.0794C61.3174 69.0636 61.4282 69.0134 61.5181 68.9352C61.6079 68.857 61.6728 68.7541 61.7047 68.6394C62.543 64.9075 61.9481 60.9729 61.8264 57.16C61.7047 53.1036 61.8264 48.9392 61.4478 44.8423C62.4889 44.8423 63.5436 44.8423 64.5712 44.6935C64.8529 44.6146 65.1015 44.4464 65.2795 44.2142C65.4575 43.9819 65.5554 43.6982 65.5584 43.4056C65.5615 43.1131 65.4695 42.8274 65.2964 42.5915C65.1232 42.3556 64.8783 42.1823 64.5982 42.0975ZM53.5515 60.5402C50.6039 61.5814 47.3048 59.9047 45.1549 57.9983C40.382 53.7121 46.507 50.2507 50.5633 50.0208C52.1073 50.0407 53.6258 50.4171 55.0002 51.1208C56.3747 51.8244 57.5679 52.8362 58.4867 54.0772C58.4867 54.7938 58.4867 55.5104 58.5948 56.2135C56.8236 57.6467 55.9988 59.6749 53.5515 60.5402Z" fill="#F7931E"/>
<path d="M60.3117 36.6348C59.7832 36.6772 59.29 36.9171 58.9304 37.3067C58.5708 37.6963 58.3711 38.2071 58.3711 38.7373C58.3711 39.2675 58.5708 39.7783 58.9304 40.1679C59.29 40.5575 59.7832 40.7974 60.3117 40.8398C60.8402 40.7974 61.3333 40.5575 61.6929 40.1679C62.0525 39.7783 62.2522 39.2675 62.2522 38.7373C62.2522 38.2071 62.0525 37.6963 61.6929 37.3067C61.3333 36.9171 60.8402 36.6772 60.3117 36.6348Z" fill="#F7931E"/>
</svg>
