<svg width="106" height="106" viewBox="0 0 106 106" fill="none" xmlns="http://www.w3.org/2000/svg">
<g clip-path="url(#clip0_34_1584)">
<mask id="mask0_34_1584" style="mask-type:luminance" maskUnits="userSpaceOnUse" x="0" y="0" width="106" height="106">
<path d="M106 0H0V106H106V0Z" fill="white"/>
</mask>
<g mask="url(#mask0_34_1584)">
<path d="M53.2959 80.0566C68.7863 80.0566 81.3439 67.4992 81.3439 52.0088C81.3439 36.5184 68.7863 23.9609 53.2959 23.9609C37.8056 23.9609 25.248 36.5184 25.248 52.0088C25.248 67.4992 37.8056 80.0566 53.2959 80.0566Z" stroke="#8AC641" stroke-width="2.1" stroke-linecap="round" stroke-linejoin="round"/>
<path d="M88.796 52.6608C88.796 60.1198 86.449 67.39 82.0876 73.4411C77.7262 79.4923 71.5713 84.0178 64.495 86.3765C57.4186 88.7354 49.7795 88.8079 42.6596 86.5837C35.5398 84.3597 29.3003 79.9518 24.8247 73.9845C20.3493 68.0172 17.8647 60.7929 17.7232 53.3352C17.5816 45.8774 19.7902 38.5641 24.036 32.4313C28.2818 26.2984 34.3497 21.6569 41.3801 19.1643C48.4103 16.6715 56.0468 16.4541 63.2074 18.5427C70.5896 20.6958 77.0742 25.1852 81.688 31.337C86.3019 37.4887 88.796 44.9711 88.796 52.6608Z" stroke="#8AC641" stroke-width="2.1" stroke-linecap="round" stroke-linejoin="round"/>
<path d="M43.447 18.5437C44.3711 10.0142 48.5221 8.22301 49.9721 6.81563C51.3172 5.2158 52.432 3.43581 53.2843 1.52734C54.145 3.43775 55.2696 5.21787 56.6252 6.81563C58.0467 8.23722 62.2262 10.0853 63.1502 18.5437" stroke="#8AC641" stroke-width="2.1" stroke-linecap="round" stroke-linejoin="round"/>
<path d="M63.1502 86.7656C62.2262 95.2241 58.0751 97.0863 56.6252 98.508C55.2708 100.101 54.1464 101.877 53.2843 103.782C52.4308 101.879 51.3159 100.104 49.9721 98.508C48.5506 97.0863 44.3711 95.2241 43.447 86.7656" stroke="#8AC641" stroke-width="2.1" stroke-linecap="round" stroke-linejoin="round"/>
<path d="M87.4141 42.7949C95.8725 43.719 97.7206 47.87 99.1421 49.32C100.739 50.6657 102.514 51.7851 104.416 52.6465C102.513 53.4953 100.738 54.6053 99.1421 55.9446C97.7206 57.3661 95.8725 61.5456 87.4141 62.4696" stroke="#8AC641" stroke-width="2.1" stroke-linecap="round" stroke-linejoin="round"/>
<path d="M19.1825 62.5123C10.724 61.5882 8.86168 57.4372 7.45431 55.9872C5.85654 54.6317 4.07641 53.5071 2.16602 52.6465C4.07392 51.7872 5.8536 50.6676 7.45431 49.32C8.87589 47.8985 10.724 43.719 19.1825 42.7949" stroke="#8AC641" stroke-width="2.1" stroke-linecap="round" stroke-linejoin="round"/>
<path d="M62.2539 18.2872C67.3574 11.4919 71.8781 12.0179 73.8541 11.5346C75.8305 10.8509 77.7014 9.8939 79.4125 8.69141C79.1729 10.7735 79.2256 12.8789 79.5689 14.9464C80.0949 16.894 82.7247 20.6327 79.1851 28.352" stroke="#8AC641" stroke-width="2.1" stroke-linecap="round" stroke-linejoin="round"/>
<path d="M44.3402 87.0214C39.2225 93.8164 34.7018 93.2905 32.7401 93.7738C30.7589 94.4568 28.8832 95.4138 27.1675 96.6171C27.4069 94.5444 27.3543 92.4484 27.011 90.3904C26.4851 88.4287 23.8694 84.7041 27.3949 76.9707" stroke="#8AC641" stroke-width="2.1" stroke-linecap="round" stroke-linejoin="round"/>
<path d="M78.5469 27.685C86.4083 24.4579 90.0332 27.2158 91.9666 27.8129C94.0146 28.2262 96.1098 28.3554 98.1931 28.1968C96.9307 29.8664 95.9068 31.7036 95.1509 33.6556C94.6107 35.6032 94.952 40.138 87.972 45.0283" stroke="#8AC641" stroke-width="2.1" stroke-linecap="round" stroke-linejoin="round"/>
<path d="M28.0512 77.6246C20.1756 80.8657 16.5647 78.1079 14.6172 77.4966C12.5695 77.081 10.4746 76.9472 8.39062 77.0985C9.65405 75.4347 10.678 73.602 11.4328 71.6539C11.9872 69.7064 11.6318 65.1714 18.626 60.2812" stroke="#8AC641" stroke-width="2.1" stroke-linecap="round" stroke-linejoin="round"/>
<path d="M44.3402 18.2872C39.2225 11.4919 34.7018 12.0179 32.7401 11.5346C30.7637 10.8509 28.8927 9.8939 27.1816 8.69141C27.4132 10.7743 27.3558 12.8792 27.011 14.9464C26.4851 16.894 23.8694 20.6327 27.3949 28.352" stroke="#8AC641" stroke-width="2.1" stroke-linecap="round" stroke-linejoin="round"/>
<path d="M62.2383 87.0214C67.356 93.8164 71.8765 93.2905 73.8525 93.7738C75.8282 94.4592 77.699 95.4161 79.411 96.6171C79.1714 94.5444 79.224 92.4484 79.5673 90.3904C80.0934 88.4287 82.709 84.7041 79.1835 76.9707" stroke="#8AC641" stroke-width="2.1" stroke-linecap="round" stroke-linejoin="round"/>
<path d="M28.037 27.685C20.1756 24.4579 16.5505 27.2158 14.6172 27.8129C12.5691 28.2262 10.4739 28.3554 8.39062 28.1968C9.65301 29.8664 10.6769 31.7036 11.4328 33.6556C11.9872 35.6032 11.6318 40.138 18.626 45.0283" stroke="#8AC641" stroke-width="2.1" stroke-linecap="round" stroke-linejoin="round"/>
<path d="M78.5312 77.6246C86.4068 80.8657 90.0319 78.1079 91.9651 77.4966C94.0129 77.081 96.1078 76.9472 98.1917 77.0985C96.9283 75.4347 95.9043 73.602 95.1495 71.6539C94.5951 69.7064 94.9505 65.1714 87.9705 60.2812" stroke="#8AC641" stroke-width="2.1" stroke-linecap="round" stroke-linejoin="round"/>
<path d="M64.7995 41.3174C63.8328 41.9286 60.5348 41.4738 59.4401 41.488L54.095 41.6159C50.0861 41.7012 45.9493 41.9714 42.0258 40.9762C41.1727 40.763 40.533 42.0851 41.4003 42.4689C44.1077 43.6095 46.9951 44.2638 49.9297 44.4023C47.9538 48.667 42.5802 49.1503 40.3625 52.9318C38.6423 55.8744 40.2062 59.4569 42.239 61.7171C46.2195 66.1668 53.7538 64.0485 57.1656 59.599C57.399 62.8996 57.9272 66.1728 58.7436 69.3794C58.8253 69.6293 58.9921 69.8425 59.2148 69.982C59.4377 70.1214 59.7023 70.1784 59.9627 70.1429C60.223 70.1074 60.4628 69.9817 60.64 69.7877C60.8174 69.5935 60.9209 69.3436 60.9328 69.0809C61.048 61.0107 60.6825 52.9408 59.8382 44.914C61.8054 45.0217 63.7784 44.8784 65.7094 44.4876C66.0485 44.3893 66.3468 44.1839 66.5595 43.902C66.7721 43.6201 66.8879 43.2769 66.8892 42.9238V42.5685C66.8886 42.3233 66.8246 42.0826 66.7035 41.8695C66.5823 41.6565 66.4081 41.4784 66.1979 41.3524C65.9876 41.2266 65.7482 41.1572 65.5033 41.151C65.2583 41.145 65.0158 41.2022 64.7995 41.3174ZM56.924 54.7941C54.9906 56.9264 53.4838 59.0587 50.6975 60.1534C49.7164 60.5753 48.6384 60.7201 47.5807 60.5722C46.523 60.4243 45.5261 59.9894 44.6984 59.3147C43.4758 58.2911 42.3811 55.775 43.5469 54.3818C45.1248 52.4627 47.8968 51.3396 49.7165 49.5768C51.0735 48.2112 51.9001 46.407 52.0479 44.4876H52.318C53.8818 44.4876 55.5876 44.6581 57.322 44.7719C57.0519 47.9847 56.924 51.3681 56.9666 54.723L56.924 54.7941Z" fill="#8AC641"/>
<path d="M58.8125 36.7261V36.6265C58.72 36.2968 58.5383 35.9989 58.2875 35.7656C58.0367 35.5324 57.7264 35.3728 57.3908 35.3045C56.9913 35.1144 56.5355 35.0791 56.1114 35.205C55.708 35.3252 55.353 35.5701 55.0975 35.9047C54.8421 36.2394 54.6994 36.6464 54.6898 37.0673V37.2521C54.6818 37.6857 54.8166 38.1099 55.0735 38.4592C55.3305 38.8087 55.6952 39.0638 56.1114 39.1854C56.4856 39.2836 56.8789 39.2828 57.2528 39.1831C57.6266 39.0834 57.9681 38.8883 58.2437 38.6167C58.4961 38.3792 58.6813 38.0793 58.7811 37.7475C58.881 37.4157 58.8917 37.0635 58.8125 36.7261Z" fill="#8AC641"/>
</g>
</g>
<defs>
<clipPath id="clip0_34_1584">
<rect width="106" height="106" fill="white"/>
</clipPath>
</defs>
</svg>
